<?xml version="1.0" encoding="UTF-8" standalone="no"?>
<!DOCTYPE svg PUBLIC "-//W3C//DTD SVG 1.1//EN"
 "http://www.w3.org/Graphics/SVG/1.1/DTD/svg11.dtd">
<!-- Generated by graphviz version 2.43.0 (0)
 -->
<!-- Title: Banking System Data Flow Pages: 1 -->
<svg width="3427pt" height="7217pt"
 viewBox="0.00 0.00 822.47 1732.00" xmlns="http://www.w3.org/2000/svg" xmlns:xlink="http://www.w3.org/1999/xlink">
<g id="graph0" class="graph" transform="scale(4.17 4.17) rotate(0) translate(4 1728)">
<title>Banking System Data Flow</title>
<polygon fill="white" stroke="transparent" points="-4,4 -4,-1728 818.47,-1728 818.47,4 -4,4"/>
<g id="clust1" class="cluster">
<title>cluster_35542d39&#45;17c2&#45;4b03&#45;b692&#45;143b2c395241</title>
<polygon fill="none" stroke="#ff5722" stroke-dasharray="5,2" points="253,-309 253,-582 806.47,-582 806.47,-309 253,-309"/>
<text text-anchor="middle" x="529.74" y="-570" font-family="Arial" font-size="10.00">Secure Banking Zone</text>
</g>
<g id="clust2" class="cluster">
<title>cluster_66e4bab3&#45;144d&#45;4cd5&#45;ac80&#45;37120229e333</title>
<polygon fill="none" stroke="#ff5722" stroke-dasharray="5,2" points="262.42,-1457 262.42,-1716 789.47,-1716 789.47,-1457 262.42,-1457"/>
<text text-anchor="middle" x="525.94" y="-1704" font-family="Arial" font-size="10.00">User&#45;Facing Zone</text>
</g>
<!-- af8d36c0&#45;205e&#45;42fa&#45;8a07&#45;24383581fa72 -->
<g id="node1" class="node">
<title>af8d36c0&#45;205e&#45;42fa&#45;8a07&#45;24383581fa72</title>
<ellipse fill="#ececfc" stroke="#9370db" cx="342.24" cy="-1577" rx="57.88" ry="18"/>
<text text-anchor="middle" x="342.24" y="-1574.5" font-family="Arial" font-size="10.00">1.0: Authentication</text>
</g>
<!-- b3310f93&#45;efc7&#45;410f&#45;b683&#45;e413d33d009b -->
<g id="node6" class="node">
<title>b3310f93&#45;efc7&#45;410f&#45;b683&#45;e413d33d009b</title>
<polygon fill="#e3f2fd" stroke="#1e88e5" points="783.47,-301 682.47,-301 682.47,-265 783.47,-265 783.47,-301"/>
<text text-anchor="middle" x="732.97" y="-280.5" font-family="Arial" font-size="10.00">D1: User Database</text>
</g>
<!-- af8d36c0&#45;205e&#45;42fa&#45;8a07&#45;24383581fa72&#45;&gt;b3310f93&#45;efc7&#45;410f&#45;b683&#45;e413d33d009b -->
<g id="edge3" class="edge">
<title>af8d36c0&#45;205e&#45;42fa&#45;8a07&#45;24383581fa72&#45;&gt;b3310f93&#45;efc7&#45;410f&#45;b683&#45;e413d33d009b</title>
<path fill="none" stroke="#795548" d="M379.08,-1556C400.46,-1543.48 423.47,-1530 423.47,-1530 423.47,-1530 459.47,-1258 459.47,-1258 459.47,-1258 631.47,-1204 631.47,-1204 631.47,-1204 667.47,-305 667.47,-305 667.47,-305 669.46,-304.32 672.75,-303.2"/>
<polygon fill="#795548" stroke="#795548" points="377.26,-1553.01 370.4,-1561.09 380.8,-1559.05 377.26,-1553.01"/>
<polygon fill="#795548" stroke="#795548" points="674.1,-306.44 682.43,-299.9 671.84,-299.81 674.1,-306.44"/>
<text text-anchor="middle" x="545.47" y="-1269.6" font-family="Arial" font-size="8.00">Verify Credentials</text>
<text text-anchor="middle" x="545.47" y="-1260.6" font-family="Arial" font-size="8.00">[username, password_hash]</text>
</g>
<!-- 6765ef38&#45;dc98&#45;441a&#45;a397&#45;b7a1f2187891 -->
<g id="node9" class="node">
<title>6765ef38&#45;dc98&#45;441a&#45;a397&#45;b7a1f2187891</title>
<polygon fill="#e3f2fd" stroke="#1e88e5" points="781.47,-1689 684.47,-1689 684.47,-1653 781.47,-1653 781.47,-1689"/>
<text text-anchor="middle" x="732.97" y="-1668.5" font-family="Arial" font-size="10.00">D4: Session Store</text>
</g>
<!-- af8d36c0&#45;205e&#45;42fa&#45;8a07&#45;24383581fa72&#45;&gt;6765ef38&#45;dc98&#45;441a&#45;a397&#45;b7a1f2187891 -->
<g id="edge4" class="edge">
<title>af8d36c0&#45;205e&#45;42fa&#45;8a07&#45;24383581fa72&#45;&gt;6765ef38&#45;dc98&#45;441a&#45;a397&#45;b7a1f2187891</title>
<path fill="none" stroke="#2196f3" d="M386.19,-1588.82C419.3,-1597.94 459.47,-1609 459.47,-1609 459.47,-1609 594.26,-1639.67 674.25,-1657.87"/>
<polygon fill="#2196f3" stroke="#2196f3" points="673.67,-1661.32 684.19,-1660.13 675.22,-1654.5 673.67,-1661.32"/>
<text text-anchor="middle" x="545.47" y="-1658.6" font-family="Arial" font-size="8.00">Store Session</text>
<text text-anchor="middle" x="545.47" y="-1649.6" font-family="Arial" font-size="8.00">[session_id, user_id, expiry]</text>
</g>
<!-- 950e24dd&#45;13d3&#45;415a&#45;92ff&#45;a19b32c9e8d5 -->
<g id="node10" class="node">
<title>950e24dd&#45;13d3&#45;415a&#45;92ff&#45;a19b32c9e8d5</title>
<polygon fill="#e3f2fd" stroke="#1e88e5" points="770.97,-207 694.97,-207 694.97,-171 770.97,-171 770.97,-207"/>
<text text-anchor="middle" x="732.97" y="-186.5" font-family="Arial" font-size="10.00">D5: Audit Log</text>
</g>
<!-- af8d36c0&#45;205e&#45;42fa&#45;8a07&#45;24383581fa72&#45;&gt;950e24dd&#45;13d3&#45;415a&#45;92ff&#45;a19b32c9e8d5 -->
<g id="edge5" class="edge">
<title>af8d36c0&#45;205e&#45;42fa&#45;8a07&#45;24383581fa72&#45;&gt;950e24dd&#45;13d3&#45;415a&#45;92ff&#45;a19b32c9e8d5</title>
<path fill="none" stroke="#2196f3" d="M370.4,-1561.09C393.68,-1547.45 423.47,-1530 423.47,-1530 423.47,-1530 459.47,-277 459.47,-277 459.47,-277 607.5,-229.2 685.35,-204.06"/>
<polygon fill="#2196f3" stroke="#2196f3" points="686.5,-207.36 694.94,-200.96 684.35,-200.7 686.5,-207.36"/>
<text text-anchor="middle" x="545.47" y="-288.6" font-family="Arial" font-size="8.00">Log Auth Event</text>
<text text-anchor="middle" x="545.47" y="-279.6" font-family="Arial" font-size="8.00">[timestamp, user_id, event_type, ip_address]</text>
</g>
<!-- 9f09373a&#45;67cc&#45;4be1&#45;9a30&#45;f90cfae52511 -->
<g id="node11" class="node">
<title>9f09373a&#45;67cc&#45;4be1&#45;9a30&#45;f90cfae52511</title>
<path fill="#f1f8e9" stroke="#7cb342" d="M759.47,-1122C759.47,-1122 706.47,-1122 706.47,-1122 700.47,-1122 694.47,-1116 694.47,-1110 694.47,-1110 694.47,-1098 694.47,-1098 694.47,-1092 700.47,-1086 706.47,-1086 706.47,-1086 759.47,-1086 759.47,-1086 765.47,-1086 771.47,-1092 771.47,-1098 771.47,-1098 771.47,-1110 771.47,-1110 771.47,-1116 765.47,-1122 759.47,-1122"/>
<text text-anchor="middle" x="732.97" y="-1101.5" font-family="Arial" font-size="10.00">E1: Customer</text>
</g>
<!-- af8d36c0&#45;205e&#45;42fa&#45;8a07&#45;24383581fa72&#45;&gt;9f09373a&#45;67cc&#45;4be1&#45;9a30&#45;f90cfae52511 -->
<g id="edge2" class="edge">
<title>af8d36c0&#45;205e&#45;42fa&#45;8a07&#45;24383581fa72&#45;&gt;9f09373a&#45;67cc&#45;4be1&#45;9a30&#45;f90cfae52511</title>
<path fill="none" stroke="#4caf50" d="M370.4,-1561.09C393.68,-1547.45 423.47,-1530 423.47,-1530 423.47,-1530 459.47,-1339 459.47,-1339 459.47,-1339 631.47,-1285 631.47,-1285 631.47,-1285 689.14,-1181.13 717.11,-1130.76"/>
<polygon fill="#4caf50" stroke="#4caf50" points="720.17,-1132.46 721.97,-1122.02 714.05,-1129.06 720.17,-1132.46"/>
<text text-anchor="middle" x="545.47" y="-1350.6" font-family="Arial" font-size="8.00">Auth Response</text>
<text text-anchor="middle" x="545.47" y="-1341.6" font-family="Arial" font-size="8.00">[session_token, status]</text>
</g>
<!-- ec6ea10e&#45;372c&#45;4f25&#45;8ba2&#45;d7cc18c549b4 -->
<g id="node2" class="node">
<title>ec6ea10e&#45;372c&#45;4f25&#45;8ba2&#45;d7cc18c549b4</title>
<ellipse fill="#ececfc" stroke="#9370db" cx="342.24" cy="-409" rx="77.23" ry="18"/>
<text text-anchor="middle" x="342.24" y="-406.5" font-family="Arial" font-size="10.00">2.0: Account Management</text>
</g>
<!-- ec6ea10e&#45;372c&#45;4f25&#45;8ba2&#45;d7cc18c549b4&#45;&gt;b3310f93&#45;efc7&#45;410f&#45;b683&#45;e413d33d009b -->
<g id="edge9" class="edge">
<title>ec6ea10e&#45;372c&#45;4f25&#45;8ba2&#45;d7cc18c549b4&#45;&gt;b3310f93&#45;efc7&#45;410f&#45;b683&#45;e413d33d009b</title>
<path fill="none" stroke="#795548" d="M351.85,-381.07C378.76,-293.79 459.47,-32 459.47,-32 459.47,-32 631.47,-32 631.47,-32 631.47,-32 667.47,-236 667.47,-236 667.47,-236 683.1,-247.39 698.98,-258.96"/>
<polygon fill="#795548" stroke="#795548" points="348.44,-380.23 348.84,-390.82 355.13,-382.29 348.44,-380.23"/>
<polygon fill="#795548" stroke="#795548" points="697.07,-261.9 707.22,-264.96 701.2,-256.25 697.07,-261.9"/>
<text text-anchor="middle" x="545.47" y="-43.6" font-family="Arial" font-size="8.00">Get User Info</text>
<text text-anchor="middle" x="545.47" y="-34.6" font-family="Arial" font-size="8.00">[user_id, profile_info]</text>
</g>
<!-- 352b8ffe&#45;a2bb&#45;4269&#45;8472&#45;783fa6bcdad2 -->
<g id="node7" class="node">
<title>352b8ffe&#45;a2bb&#45;4269&#45;8472&#45;783fa6bcdad2</title>
<polygon fill="#e3f2fd" stroke="#1e88e5" points="790.97,-461 674.97,-461 674.97,-425 790.97,-425 790.97,-461"/>
<text text-anchor="middle" x="732.97" y="-440.5" font-family="Arial" font-size="10.00">D2: Account Database</text>
</g>
<!-- ec6ea10e&#45;372c&#45;4f25&#45;8ba2&#45;d7cc18c549b4&#45;&gt;352b8ffe&#45;a2bb&#45;4269&#45;8472&#45;783fa6bcdad2 -->
<g id="edge8" class="edge">
<title>ec6ea10e&#45;372c&#45;4f25&#45;8ba2&#45;d7cc18c549b4&#45;&gt;352b8ffe&#45;a2bb&#45;4269&#45;8472&#45;783fa6bcdad2</title>
<path fill="none" stroke="#795548" d="M394.42,-390.51C425.59,-379.24 459.47,-367 459.47,-367 459.47,-367 631.47,-367 631.47,-367 631.47,-367 670.71,-396.67 700.15,-418.94"/>
<polygon fill="#795548" stroke="#795548" points="393.09,-387.27 384.87,-393.96 395.47,-393.85 393.09,-387.27"/>
<polygon fill="#795548" stroke="#795548" points="698.07,-421.75 708.15,-424.99 702.29,-416.17 698.07,-421.75"/>
<text text-anchor="middle" x="545.47" y="-378.6" font-family="Arial" font-size="8.00">Manage Accounts</text>
<text text-anchor="middle" x="545.47" y="-369.6" font-family="Arial" font-size="8.00">[account_id, customer_id, balance, status]</text>
</g>
<!-- ec6ea10e&#45;372c&#45;4f25&#45;8ba2&#45;d7cc18c549b4&#45;&gt;950e24dd&#45;13d3&#45;415a&#45;92ff&#45;a19b32c9e8d5 -->
<g id="edge26" class="edge">
<title>ec6ea10e&#45;372c&#45;4f25&#45;8ba2&#45;d7cc18c549b4&#45;&gt;950e24dd&#45;13d3&#45;415a&#45;92ff&#45;a19b32c9e8d5</title>
<path fill="none" stroke="#2196f3" d="M348.38,-390.9C370.88,-311.74 459.47,0 459.47,0 459.47,0 631.47,0 631.47,0 631.47,0 667.47,-142 667.47,-142 667.47,-142 683.1,-153.39 698.98,-164.96"/>
<polygon fill="#2196f3" stroke="#2196f3" points="697.07,-167.9 707.22,-170.96 701.2,-162.25 697.07,-167.9"/>
<text text-anchor="middle" x="545.47" y="-11.6" font-family="Arial" font-size="8.00">Account Audit</text>
<text text-anchor="middle" x="545.47" y="-2.6" font-family="Arial" font-size="8.00">[timestamp, user_id, action, status]</text>
</g>
<!-- ec6ea10e&#45;372c&#45;4f25&#45;8ba2&#45;d7cc18c549b4&#45;&gt;9f09373a&#45;67cc&#45;4be1&#45;9a30&#45;f90cfae52511 -->
<g id="edge7" class="edge">
<title>ec6ea10e&#45;372c&#45;4f25&#45;8ba2&#45;d7cc18c549b4&#45;&gt;9f09373a&#45;67cc&#45;4be1&#45;9a30&#45;f90cfae52511</title>
<path fill="none" stroke="#4caf50" d="M360.65,-426.58C384.24,-450.4 423.47,-490 423.47,-490 423.47,-490 459.47,-556 459.47,-556 459.47,-556 631.47,-610 631.47,-610 631.47,-610 705.01,-971.45 726.27,-1076"/>
<polygon fill="#4caf50" stroke="#4caf50" points="722.85,-1076.73 728.27,-1085.83 729.71,-1075.34 722.85,-1076.73"/>
<text text-anchor="middle" x="545.47" y="-621.6" font-family="Arial" font-size="8.00">Account Response</text>
<text text-anchor="middle" x="545.47" y="-612.6" font-family="Arial" font-size="8.00">[status, account_info]</text>
</g>
<!-- c3fe7f46&#45;b7fd&#45;457b&#45;9e49&#45;ab7f95346eb3 -->
<g id="node3" class="node">
<title>c3fe7f46&#45;b7fd&#45;457b&#45;9e49&#45;ab7f95346eb3</title>
<ellipse fill="#ececfc" stroke="#9370db" cx="342.24" cy="-537" rx="81.47" ry="18"/>
<text text-anchor="middle" x="342.24" y="-534.5" font-family="Arial" font-size="10.00">3.0: Transaction Processing</text>
</g>
<!-- 79199ffc&#45;3b35&#45;4795&#45;8155&#45;6302b8fdec65 -->
<g id="node5" class="node">
<title>79199ffc&#45;3b35&#45;4795&#45;8155&#45;6302b8fdec65</title>
<ellipse fill="#ececfc" stroke="#9370db" cx="342.24" cy="-1671" rx="71.63" ry="18"/>
<text text-anchor="middle" x="342.24" y="-1668.5" font-family="Arial" font-size="10.00">5.0: Notification Service</text>
</g>
<!-- c3fe7f46&#45;b7fd&#45;457b&#45;9e49&#45;ab7f95346eb3&#45;&gt;79199ffc&#45;3b35&#45;4795&#45;8155&#45;6302b8fdec65 -->
<g id="edge15" class="edge">
<title>c3fe7f46&#45;b7fd&#45;457b&#45;9e49&#45;ab7f95346eb3&#45;&gt;79199ffc&#45;3b35&#45;4795&#45;8155&#45;6302b8fdec65</title>
<path fill="none" stroke="#2196f3" d="M338.56,-555.3C311.91,-687.88 149.5,-1496 149.5,-1496 149.5,-1496 149.5,-1514 149.5,-1514 149.5,-1514 253,-1624 253,-1624 253,-1624 278.56,-1637.46 302.31,-1649.97"/>
<polygon fill="#2196f3" stroke="#2196f3" points="300.8,-1653.13 311.28,-1654.69 304.06,-1646.94 300.8,-1653.13"/>
<text text-anchor="middle" x="170.5" y="-1507.6" font-family="Arial" font-size="8.00">Transaction Alert</text>
<text text-anchor="middle" x="170.5" y="-1498.6" font-family="Arial" font-size="8.00">[user_id, message, channel]</text>
</g>
<!-- c3fe7f46&#45;b7fd&#45;457b&#45;9e49&#45;ab7f95346eb3&#45;&gt;352b8ffe&#45;a2bb&#45;4269&#45;8472&#45;783fa6bcdad2 -->
<g id="edge12" class="edge">
<title>c3fe7f46&#45;b7fd&#45;457b&#45;9e49&#45;ab7f95346eb3&#45;&gt;352b8ffe&#45;a2bb&#45;4269&#45;8472&#45;783fa6bcdad2</title>
<path fill="none" stroke="#795548" d="M396.96,-518.51C427.41,-508.03 459.47,-497 459.47,-497 459.47,-497 584.06,-472.31 664.75,-456.32"/>
<polygon fill="#795548" stroke="#795548" points="395.5,-515.31 387.18,-521.88 397.77,-521.93 395.5,-515.31"/>
<polygon fill="#795548" stroke="#795548" points="665.72,-459.7 674.85,-454.32 664.36,-452.83 665.72,-459.7"/>
<text text-anchor="middle" x="545.47" y="-508.6" font-family="Arial" font-size="8.00">Update Balance</text>
<text text-anchor="middle" x="545.47" y="-499.6" font-family="Arial" font-size="8.00">[account_id, new_balance]</text>
</g>
<!-- a739b3ef&#45;322c&#45;4489&#45;91c7&#45;a73ecace875a -->
<g id="node8" class="node">
<title>a739b3ef&#45;322c&#45;4489&#45;91c7&#45;a73ecace875a</title>
<polygon fill="#e3f2fd" stroke="#1e88e5" points="798.47,-555 667.47,-555 667.47,-519 798.47,-519 798.47,-555"/>
<text text-anchor="middle" x="732.97" y="-534.5" font-family="Arial" font-size="10.00">D3: Transaction Database</text>
</g>
<!-- c3fe7f46&#45;b7fd&#45;457b&#45;9e49&#45;ab7f95346eb3&#45;&gt;a739b3ef&#45;322c&#45;4489&#45;91c7&#45;a73ecace875a -->
<g id="edge13" class="edge">
<title>c3fe7f46&#45;b7fd&#45;457b&#45;9e49&#45;ab7f95346eb3&#45;&gt;a739b3ef&#45;322c&#45;4489&#45;91c7&#45;a73ecace875a</title>
<path fill="none" stroke="#2196f3" d="M420.12,-531.71C441.73,-530.22 459.47,-529 459.47,-529 459.47,-529 631.47,-529 631.47,-529 631.47,-529 642.53,-529.88 657.3,-531.06"/>
<polygon fill="#2196f3" stroke="#2196f3" points="657.22,-534.56 667.47,-531.87 657.78,-527.58 657.22,-534.56"/>
<text text-anchor="middle" x="545.47" y="-540.6" font-family="Arial" font-size="8.00">Store Transaction</text>
<text text-anchor="middle" x="545.47" y="-531.6" font-family="Arial" font-size="8.00">[transaction_id, details, timestamp]</text>
</g>
<!-- c3fe7f46&#45;b7fd&#45;457b&#45;9e49&#45;ab7f95346eb3&#45;&gt;950e24dd&#45;13d3&#45;415a&#45;92ff&#45;a19b32c9e8d5 -->
<g id="edge25" class="edge">
<title>c3fe7f46&#45;b7fd&#45;457b&#45;9e49&#45;ab7f95346eb3&#45;&gt;950e24dd&#45;13d3&#45;415a&#45;92ff&#45;a19b32c9e8d5</title>
<path fill="none" stroke="#2196f3" d="M360.65,-519.42C384.24,-495.6 423.47,-456 423.47,-456 423.47,-456 459.47,-194 459.47,-194 459.47,-194 606.9,-191.29 684.87,-189.86"/>
<polygon fill="#2196f3" stroke="#2196f3" points="685,-193.36 694.94,-189.68 684.87,-186.36 685,-193.36"/>
<text text-anchor="middle" x="545.47" y="-205.6" font-family="Arial" font-size="8.00">Transaction Audit</text>
<text text-anchor="middle" x="545.47" y="-196.6" font-family="Arial" font-size="8.00">[timestamp, user_id, action, status]</text>
</g>
<!-- c3fe7f46&#45;b7fd&#45;457b&#45;9e49&#45;ab7f95346eb3&#45;&gt;9f09373a&#45;67cc&#45;4be1&#45;9a30&#45;f90cfae52511 -->
<g id="edge11" class="edge">
<title>c3fe7f46&#45;b7fd&#45;457b&#45;9e49&#45;ab7f95346eb3&#45;&gt;9f09373a&#45;67cc&#45;4be1&#45;9a30&#45;f90cfae52511</title>
<path fill="none" stroke="#4caf50" d="M354.81,-555.02C384.21,-600.8 459.47,-718 459.47,-718 459.47,-718 631.47,-772 631.47,-772 631.47,-772 699.14,-995.55 723.43,-1075.77"/>
<polygon fill="#4caf50" stroke="#4caf50" points="720.18,-1077.12 726.42,-1085.68 726.88,-1075.09 720.18,-1077.12"/>
<text text-anchor="middle" x="545.47" y="-783.6" font-family="Arial" font-size="8.00">Transaction Result</text>
<text text-anchor="middle" x="545.47" y="-774.6" font-family="Arial" font-size="8.00">[status, confirmation_id]</text>
</g>
<!-- 3f9c198d&#45;2511&#45;4429&#45;80b2&#45;472938769ae2 -->
<g id="node13" class="node">
<title>3f9c198d&#45;2511&#45;4429&#45;80b2&#45;472938769ae2</title>
<path fill="#f1f8e9" stroke="#7cb342" d="M778.97,-113C778.97,-113 686.97,-113 686.97,-113 680.97,-113 674.97,-107 674.97,-101 674.97,-101 674.97,-89 674.97,-89 674.97,-83 680.97,-77 686.97,-77 686.97,-77 778.97,-77 778.97,-77 784.97,-77 790.97,-83 790.97,-89 790.97,-89 790.97,-101 790.97,-101 790.97,-107 784.97,-113 778.97,-113"/>
<text text-anchor="middle" x="732.97" y="-92.5" font-family="Arial" font-size="10.00">E3: Payment Gateway</text>
</g>
<!-- c3fe7f46&#45;b7fd&#45;457b&#45;9e49&#45;ab7f95346eb3&#45;&gt;3f9c198d&#45;2511&#45;4429&#45;80b2&#45;472938769ae2 -->
<g id="edge14" class="edge">
<title>c3fe7f46&#45;b7fd&#45;457b&#45;9e49&#45;ab7f95346eb3&#45;&gt;3f9c198d&#45;2511&#45;4429&#45;80b2&#45;472938769ae2</title>
<path fill="none" stroke="#795548" d="M367.95,-512.05C391.53,-488.24 423.47,-456 423.47,-456 423.47,-456 459.47,-159 459.47,-159 459.47,-159 584.06,-129.74 664.75,-110.79"/>
<polygon fill="#795548" stroke="#795548" points="365.2,-509.86 360.65,-519.42 370.17,-514.78 365.2,-509.86"/>
<polygon fill="#795548" stroke="#795548" points="665.91,-114.11 674.85,-108.42 664.31,-107.3 665.91,-114.11"/>
<text text-anchor="middle" x="545.47" y="-170.6" font-family="Arial" font-size="8.00">External Payment</text>
<text text-anchor="middle" x="545.47" y="-161.6" font-family="Arial" font-size="8.00">[payment_details, auth_token]</text>
</g>
<!-- c107e370&#45;737e&#45;41b6&#45;83c4&#45;4e618859872a -->
<g id="node4" class="node">
<title>c107e370&#45;737e&#45;41b6&#45;83c4&#45;4e618859872a</title>
<ellipse fill="#ececfc" stroke="#9370db" cx="342.24" cy="-1483" rx="45.83" ry="18"/>
<text text-anchor="middle" x="342.24" y="-1480.5" font-family="Arial" font-size="10.00">4.0: Reporting</text>
</g>
<!-- c107e370&#45;737e&#45;41b6&#45;83c4&#45;4e618859872a&#45;&gt;352b8ffe&#45;a2bb&#45;4269&#45;8472&#45;783fa6bcdad2 -->
<g id="edge19" class="edge">
<title>c107e370&#45;737e&#45;41b6&#45;83c4&#45;4e618859872a&#45;&gt;352b8ffe&#45;a2bb&#45;4269&#45;8472&#45;783fa6bcdad2</title>
<path fill="none" stroke="#2196f3" d="M347.04,-1465.05C367.07,-1370.43 459.47,-934 459.47,-934 459.47,-934 631.47,-880 631.47,-880 631.47,-880 667.47,-490 667.47,-490 667.47,-490 683.1,-478.61 698.98,-467.04"/>
<polygon fill="#2196f3" stroke="#2196f3" points="701.2,-469.75 707.22,-461.04 697.07,-464.1 701.2,-469.75"/>
<text text-anchor="middle" x="545.47" y="-945.6" font-family="Arial" font-size="8.00">Get Account Info</text>
<text text-anchor="middle" x="545.47" y="-936.6" font-family="Arial" font-size="8.00">[account_id]</text>
</g>
<!-- c107e370&#45;737e&#45;41b6&#45;83c4&#45;4e618859872a&#45;&gt;a739b3ef&#45;322c&#45;4489&#45;91c7&#45;a73ecace875a -->
<g id="edge18" class="edge">
<title>c107e370&#45;737e&#45;41b6&#45;83c4&#45;4e618859872a&#45;&gt;a739b3ef&#45;322c&#45;4489&#45;91c7&#45;a73ecace875a</title>
<path fill="none" stroke="#2196f3" d="M348.23,-1465.12C370.48,-1385.5 459.47,-1067 459.47,-1067 459.47,-1067 631.47,-961 631.47,-961 631.47,-961 702.81,-660.02 725.28,-565.23"/>
<polygon fill="#2196f3" stroke="#2196f3" points="728.75,-565.76 727.65,-555.22 721.94,-564.14 728.75,-565.76"/>
<text text-anchor="middle" x="545.47" y="-1078.6" font-family="Arial" font-size="8.00">Get Transactions</text>
<text text-anchor="middle" x="545.47" y="-1069.6" font-family="Arial" font-size="8.00">[user_id, time_period, filters]</text>
</g>
<!-- c107e370&#45;737e&#45;41b6&#45;83c4&#45;4e618859872a&#45;&gt;9f09373a&#45;67cc&#45;4be1&#45;9a30&#45;f90cfae52511 -->
<g id="edge17" class="edge">
<title>c107e370&#45;737e&#45;41b6&#45;83c4&#45;4e618859872a&#45;&gt;9f09373a&#45;67cc&#45;4be1&#45;9a30&#45;f90cfae52511</title>
<path fill="none" stroke="#4caf50" d="M348.69,-1464.99C371.67,-1389.08 459.47,-1099 459.47,-1099 459.47,-1099 631.47,-1099 631.47,-1099 631.47,-1099 658.18,-1100.33 684.06,-1101.62"/>
<polygon fill="#4caf50" stroke="#4caf50" points="684.1,-1105.12 694.26,-1102.12 684.45,-1098.13 684.1,-1105.12"/>
<text text-anchor="middle" x="545.47" y="-1110.6" font-family="Arial" font-size="8.00">Report Data</text>
<text text-anchor="middle" x="545.47" y="-1101.6" font-family="Arial" font-size="8.00">[report_content]</text>
</g>
<!-- 79199ffc&#45;3b35&#45;4795&#45;8155&#45;6302b8fdec65&#45;&gt;9f09373a&#45;67cc&#45;4be1&#45;9a30&#45;f90cfae52511 -->
<g id="edge23" class="edge">
<title>79199ffc&#45;3b35&#45;4795&#45;8155&#45;6302b8fdec65&#45;&gt;9f09373a&#45;67cc&#45;4be1&#45;9a30&#45;f90cfae52511</title>
<path fill="none" stroke="#2196f3" d="M371.75,-1654.3C394.81,-1640.79 423.47,-1624 423.47,-1624 423.47,-1624 459.47,-1501 459.47,-1501 459.47,-1501 631.47,-1447 631.47,-1447 631.47,-1447 699.73,-1214.04 723.74,-1132.1"/>
<polygon fill="#2196f3" stroke="#2196f3" points="727.11,-1133.02 726.57,-1122.44 720.4,-1131.05 727.11,-1133.02"/>
<text text-anchor="middle" x="545.47" y="-1512.6" font-family="Arial" font-size="8.00">Customer Notification</text>
<text text-anchor="middle" x="545.47" y="-1503.6" font-family="Arial" font-size="8.00">[notification_content]</text>
</g>
<!-- 5ce4d138&#45;f4d9&#45;42c0&#45;a96f&#45;9c08614157ec -->
<g id="node14" class="node">
<title>5ce4d138&#45;f4d9&#45;42c0&#45;a96f&#45;9c08614157ec</title>
<path fill="#f1f8e9" stroke="#7cb342" d="M768.47,-1449C768.47,-1449 697.47,-1449 697.47,-1449 691.47,-1449 685.47,-1443 685.47,-1437 685.47,-1437 685.47,-1425 685.47,-1425 685.47,-1419 691.47,-1413 697.47,-1413 697.47,-1413 768.47,-1413 768.47,-1413 774.47,-1413 780.47,-1419 780.47,-1425 780.47,-1425 780.47,-1437 780.47,-1437 780.47,-1443 774.47,-1449 768.47,-1449"/>
<text text-anchor="middle" x="732.97" y="-1428.5" font-family="Arial" font-size="10.00">E4: Email Service</text>
</g>
<!-- 79199ffc&#45;3b35&#45;4795&#45;8155&#45;6302b8fdec65&#45;&gt;5ce4d138&#45;f4d9&#45;42c0&#45;a96f&#45;9c08614157ec -->
<g id="edge24" class="edge">
<title>79199ffc&#45;3b35&#45;4795&#45;8155&#45;6302b8fdec65&#45;&gt;5ce4d138&#45;f4d9&#45;42c0&#45;a96f&#45;9c08614157ec</title>
<path fill="none" stroke="#2196f3" d="M371.75,-1654.3C394.81,-1640.79 423.47,-1624 423.47,-1624 423.47,-1624 459.47,-1582 459.47,-1582 459.47,-1582 631.47,-1528 631.47,-1528 631.47,-1528 667.47,-1453 667.47,-1453 667.47,-1453 670.67,-1451.91 675.64,-1450.21"/>
<polygon fill="#2196f3" stroke="#2196f3" points="677.1,-1453.41 685.44,-1446.87 674.84,-1446.79 677.1,-1453.41"/>
<text text-anchor="middle" x="545.47" y="-1593.6" font-family="Arial" font-size="8.00">Send Email</text>
<text text-anchor="middle" x="545.47" y="-1584.6" font-family="Arial" font-size="8.00">[recipient, subject, body]</text>
</g>
<!-- 9f09373a&#45;67cc&#45;4be1&#45;9a30&#45;f90cfae52511&#45;&gt;af8d36c0&#45;205e&#45;42fa&#45;8a07&#45;24383581fa72 -->
<g id="edge1" class="edge">
<title>9f09373a&#45;67cc&#45;4be1&#45;9a30&#45;f90cfae52511&#45;&gt;af8d36c0&#45;205e&#45;42fa&#45;8a07&#45;24383581fa72</title>
<path fill="none" stroke="#2196f3" d="M725.06,-1122.01C702.36,-1181.2 631.47,-1366 631.47,-1366 631.47,-1366 459.47,-1420 459.47,-1420 459.47,-1420 423.47,-1530 423.47,-1530 423.47,-1530 400.46,-1543.48 379.08,-1556"/>
<polygon fill="#2196f3" stroke="#2196f3" points="377.26,-1553.01 370.4,-1561.09 380.8,-1559.05 377.26,-1553.01"/>
<text text-anchor="middle" x="545.47" y="-1431.6" font-family="Arial" font-size="8.00">Login Request</text>
<text text-anchor="middle" x="545.47" y="-1422.6" font-family="Arial" font-size="8.00">[username, password]</text>
</g>
<!-- 9f09373a&#45;67cc&#45;4be1&#45;9a30&#45;f90cfae52511&#45;&gt;ec6ea10e&#45;372c&#45;4f25&#45;8ba2&#45;d7cc18c549b4 -->
<g id="edge6" class="edge">
<title>9f09373a&#45;67cc&#45;4be1&#45;9a30&#45;f90cfae52511&#45;&gt;ec6ea10e&#45;372c&#45;4f25&#45;8ba2&#45;d7cc18c549b4</title>
<path fill="none" stroke="#2196f3" d="M727.59,-1085.99C708.24,-1006.5 631.47,-691 631.47,-691 631.47,-691 459.47,-637 459.47,-637 459.47,-637 423.47,-490 423.47,-490 423.47,-490 391.53,-457.76 367.95,-433.95"/>
<polygon fill="#2196f3" stroke="#2196f3" points="370.17,-431.22 360.65,-426.58 365.2,-436.14 370.17,-431.22"/>
<text text-anchor="middle" x="545.47" y="-702.6" font-family="Arial" font-size="8.00">Account Request</text>
<text text-anchor="middle" x="545.47" y="-693.6" font-family="Arial" font-size="8.00">[action, account_details]</text>
</g>
<!-- 9f09373a&#45;67cc&#45;4be1&#45;9a30&#45;f90cfae52511&#45;&gt;c3fe7f46&#45;b7fd&#45;457b&#45;9e49&#45;ab7f95346eb3 -->
<g id="edge10" class="edge">
<title>9f09373a&#45;67cc&#45;4be1&#45;9a30&#45;f90cfae52511&#45;&gt;c3fe7f46&#45;b7fd&#45;457b&#45;9e49&#45;ab7f95346eb3</title>
<path fill="none" stroke="#2196f3" d="M724.74,-1085.95C701.7,-1028.4 631.47,-853 631.47,-853 631.47,-853 459.47,-799 459.47,-799 459.47,-799 385.3,-631.81 355.45,-564.54"/>
<polygon fill="#2196f3" stroke="#2196f3" points="358.48,-562.73 351.22,-555.01 352.08,-565.57 358.48,-562.73"/>
<text text-anchor="middle" x="545.47" y="-864.6" font-family="Arial" font-size="8.00">Transaction Request</text>
<text text-anchor="middle" x="545.47" y="-855.6" font-family="Arial" font-size="8.00">[transaction_type, amount, account_id, recipient]</text>
</g>
<!-- 9f09373a&#45;67cc&#45;4be1&#45;9a30&#45;f90cfae52511&#45;&gt;c107e370&#45;737e&#45;41b6&#45;83c4&#45;4e618859872a -->
<g id="edge16" class="edge">
<title>9f09373a&#45;67cc&#45;4be1&#45;9a30&#45;f90cfae52511&#45;&gt;c107e370&#45;737e&#45;41b6&#45;83c4&#45;4e618859872a</title>
<path fill="none" stroke="#2196f3" d="M694.37,-1114.07C619.61,-1134.1 459.47,-1177 459.47,-1177 459.47,-1177 382.23,-1380.34 353.68,-1455.5"/>
<polygon fill="#2196f3" stroke="#2196f3" points="350.27,-1454.63 349.99,-1465.23 356.81,-1457.12 350.27,-1454.63"/>
<text text-anchor="middle" x="545.47" y="-1188.6" font-family="Arial" font-size="8.00">Report Request</text>
<text text-anchor="middle" x="545.47" y="-1179.6" font-family="Arial" font-size="8.00">[report_type, time_period, format]</text>
</g>
<!-- 8c1143a8&#45;94f3&#45;4a85&#45;b786&#45;e9e77b2daec8 -->
<g id="node12" class="node">
<title>8c1143a8&#45;94f3&#45;4a85&#45;b786&#45;e9e77b2daec8</title>
<path fill="#f1f8e9" stroke="#7cb342" d="M68,-1491C68,-1491 12,-1491 12,-1491 6,-1491 0,-1485 0,-1479 0,-1479 0,-1467 0,-1467 0,-1461 6,-1455 12,-1455 12,-1455 68,-1455 68,-1455 74,-1455 80,-1461 80,-1467 80,-1467 80,-1479 80,-1479 80,-1485 74,-1491 68,-1491"/>
<text text-anchor="middle" x="40" y="-1470.5" font-family="Arial" font-size="10.00">E2: Bank Staff</text>
</g>
<!-- 8c1143a8&#45;94f3&#45;4a85&#45;b786&#45;e9e77b2daec8&#45;&gt;af8d36c0&#45;205e&#45;42fa&#45;8a07&#45;24383581fa72 -->
<g id="edge20" class="edge">
<title>8c1143a8&#45;94f3&#45;4a85&#45;b786&#45;e9e77b2daec8&#45;&gt;af8d36c0&#45;205e&#45;42fa&#45;8a07&#45;24383581fa72</title>
<path fill="none" stroke="#2196f3" d="M73.24,-1491.06C93.57,-1502.44 116,-1515 116,-1515 116,-1515 221.84,-1544.14 288.42,-1562.46"/>
<polygon fill="#2196f3" stroke="#2196f3" points="287.77,-1565.91 298.34,-1565.19 289.63,-1559.16 287.77,-1565.91"/>
<text text-anchor="middle" x="170.5" y="-1555.6" font-family="Arial" font-size="8.00">Staff Login</text>
<text text-anchor="middle" x="170.5" y="-1546.6" font-family="Arial" font-size="8.00">[staff_id, password, mfa_code]</text>
</g>
<!-- 8c1143a8&#45;94f3&#45;4a85&#45;b786&#45;e9e77b2daec8&#45;&gt;ec6ea10e&#45;372c&#45;4f25&#45;8ba2&#45;d7cc18c549b4 -->
<g id="edge22" class="edge">
<title>8c1143a8&#45;94f3&#45;4a85&#45;b786&#45;e9e77b2daec8&#45;&gt;ec6ea10e&#45;372c&#45;4f25&#45;8ba2&#45;d7cc18c549b4</title>
<path fill="none" stroke="#2196f3" d="M44.95,-1454.67C73.97,-1320.1 253,-490 253,-490 253,-490 288.74,-457.19 314.72,-433.34"/>
<polygon fill="#2196f3" stroke="#2196f3" points="317.09,-435.92 322.09,-426.58 312.36,-430.76 317.09,-435.92"/>
<text text-anchor="middle" x="170.5" y="-1109.6" font-family="Arial" font-size="8.00">Admin Actions</text>
<text text-anchor="middle" x="170.5" y="-1100.6" font-family="Arial" font-size="8.00">[action_type, customer_id]</text>
</g>
<!-- 8c1143a8&#45;94f3&#45;4a85&#45;b786&#45;e9e77b2daec8&#45;&gt;c107e370&#45;737e&#45;41b6&#45;83c4&#45;4e618859872a -->
<g id="edge21" class="edge">
<title>8c1143a8&#45;94f3&#45;4a85&#45;b786&#45;e9e77b2daec8&#45;&gt;c107e370&#45;737e&#45;41b6&#45;83c4&#45;4e618859872a</title>
<path fill="none" stroke="#2196f3" d="M80.26,-1468.81C98.4,-1466.88 116,-1465 116,-1465 116,-1465 225,-1465 225,-1465 225,-1465 258.36,-1470.17 289.34,-1474.96"/>
<polygon fill="#2196f3" stroke="#2196f3" points="288.85,-1478.43 299.27,-1476.5 289.93,-1471.51 288.85,-1478.43"/>
<text text-anchor="middle" x="170.5" y="-1476.6" font-family="Arial" font-size="8.00">Admin Report Request</text>
<text text-anchor="middle" x="170.5" y="-1467.6" font-family="Arial" font-size="8.00">[report_type, parameters]</text>
</g>
</g>
</svg>
