<?xml version="1.0" encoding="utf-8" ?>
<svg baseProfile="full" height="1000px" version="1.1" width="1400px" xmlns="http://www.w3.org/2000/svg" xmlns:ev="http://www.w3.org/2001/xml-events" xmlns:xlink="http://www.w3.org/1999/xlink"><defs><marker id="arrow" markerHeight="10" markerWidth="10" orient="auto" refX="10" refY="5"><path d="M0,0 L10,5 L0,10 L3,5 Z" fill="#000000" /></marker><symbol id="router" viewBox="0 0 60 60"><rect fill="#FFECB3" height="30" rx="2" ry="2" stroke="#333333" stroke-width="2" width="50" x="5" y="10" /><circle cx="15" cy="45" fill="#333333" r="3" /><circle cx="30" cy="45" fill="#333333" r="3" /><circle cx="45" cy="45" fill="#333333" r="3" /></symbol><symbol id="switch" viewBox="0 0 60 60"><rect fill="#C8E6C9" height="20" rx="2" ry="2" stroke="#333333" stroke-width="2" width="50" x="5" y="20" /><line stroke="#333333" stroke-width="1" x1="15" x2="15" y1="20" y2="40" /><line stroke="#333333" stroke-width="1" x1="25" x2="25" y1="20" y2="40" /><line stroke="#333333" stroke-width="1" x1="35" x2="35" y1="20" y2="40" /><line stroke="#333333" stroke-width="1" x1="45" x2="45" y1="20" y2="40" /><line stroke="#333333" stroke-width="1" x1="55" x2="55" y1="20" y2="40" /></symbol><symbol id="firewall" viewBox="0 0 60 60"><rect fill="#FFCDD2" height="40" stroke="#333333" stroke-width="2" width="40" x="10" y="10" /><path d="M10,10 L50,50 M10,50 L50,10" fill="none" stroke="#333333" stroke-width="2" /></symbol><symbol id="server" viewBox="0 0 60 60"><rect fill="#BBDEFB" height="50" stroke="#333333" stroke-width="2" width="30" x="15" y="5" /><line stroke="#333333" stroke-width="1" x1="15" x2="45" y1="15" y2="15" /><line stroke="#333333" stroke-width="1" x1="15" x2="45" y1="30" y2="30" /><line stroke="#333333" stroke-width="1" x1="15" x2="45" y1="45" y2="45" /></symbol><symbol id="workstation" viewBox="0 0 60 60"><rect fill="#D1C4E9" height="20" stroke="#333333" stroke-width="2" width="50" x="5" y="30" /><rect fill="#D1C4E9" height="25" stroke="#333333" stroke-width="2" width="30" x="15" y="5" /></symbol><symbol id="cloud" viewBox="0 0 60 60"><ellipse cx="30" cy="30" fill="#E1F5FE" rx="25" ry="15" stroke="#333333" stroke-width="2" /></symbol></defs><g id="zones"><rect fill="#F5F5F5" fill-opacity="0.3" height="160" rx="15" ry="15" stroke="#9E9E9E" stroke-dasharray="5,5" stroke-width="2" width="180.0" x="10.0" y="-30" /><text fill="#212121" font-family="Arial, sans-serif" font-size="14px" font-weight="bold" x="30.0" y="-5">Internet</text><text fill="#212121" font-family="Arial, sans-serif" font-size="12px" font-style="italic" x="30.0" y="15">(External)</text><rect fill="#F5F5F5" fill-opacity="0.3" height="360" rx="15" ry="15" stroke="#9E9E9E" stroke-dasharray="5,5" stroke-width="2" width="280.0" x="-40.0" y="70" /><text fill="#212121" font-family="Arial, sans-serif" font-size="14px" font-weight="bold" x="-20.0" y="95">DMZ</text><text fill="#212121" font-family="Arial, sans-serif" font-size="12px" font-style="italic" x="-20.0" y="115">(DMZ)</text><text fill="#212121" font-family="Arial, sans-serif" font-size="12px" x="-20.0" y="135">192.168.1.0/24</text><rect fill="#F5F5F5" fill-opacity="0.3" height="460" rx="15" ry="15" stroke="#9E9E9E" stroke-dasharray="5,5" stroke-width="2" width="290.0" x="-50.0" y="170" /><text fill="#212121" font-family="Arial, sans-serif" font-size="14px" font-weight="bold" x="-30.0" y="195">Internal Network</text><text fill="#212121" font-family="Arial, sans-serif" font-size="12px" font-style="italic" x="-30.0" y="215">(Internal)</text><text fill="#212121" font-family="Arial, sans-serif" font-size="12px" x="-30.0" y="235">10.0.0.0/16</text><rect fill="#F5F5F5" fill-opacity="0.3" height="360" rx="15" ry="15" stroke="#9E9E9E" stroke-dasharray="5,5" stroke-width="2" width="290.0" x="-40.0" y="370" /><text fill="#212121" font-family="Arial, sans-serif" font-size="14px" font-weight="bold" x="-20.0" y="395">Data Center</text><text fill="#212121" font-family="Arial, sans-serif" font-size="12px" font-style="italic" x="-20.0" y="415">(Data Center)</text><text fill="#212121" font-family="Arial, sans-serif" font-size="12px" x="-20.0" y="435">10.10.0.0/16</text><rect fill="#F5F5F5" fill-opacity="0.3" height="160" rx="15" ry="15" stroke="#9E9E9E" stroke-dasharray="5,5" stroke-width="2" width="180.0" x="-10.0" y="470" /><text fill="#212121" font-family="Arial, sans-serif" font-size="14px" font-weight="bold" x="10.0" y="495">Cloud Services</text><text fill="#212121" font-family="Arial, sans-serif" font-size="12px" font-style="italic" x="10.0" y="515">(Cloud)</text></g><g id="devices"><g id="device-217e0258-7e02-4b5c-b511-4f4568eefaf3"><rect fill="#E1BEE7" height="100" rx="5" ry="5" stroke="#333333" stroke-width="2" width="120" x="40.0" y="0" /><text fill="#212121" font-family="Arial, sans-serif" font-size="12px" font-weight="bold" text-anchor="middle" x="100.0" y="115">Internet Gateway</text><text fill="#212121" font-family="Arial, sans-serif" font-size="10px" text-anchor="middle" x="100.0" y="130">203.0.113.1</text><text fill="#212121" font-family="Arial, sans-serif" font-size="12px" font-weight="bold" text-anchor="middle" x="100.0" y="50">GATEWAY</text></g><g id="device-b9d2ec60-9a7b-4ef3-9397-86ed1cad21f7"><rect fill="#FFCDD2" height="100" rx="5" ry="5" stroke="#333333" stroke-width="2" width="120" x="40.0" y="100" /><text fill="#212121" font-family="Arial, sans-serif" font-size="12px" font-weight="bold" text-anchor="middle" x="100.0" y="215">Edge Firewall</text><text fill="#212121" font-family="Arial, sans-serif" font-size="10px" text-anchor="middle" x="100.0" y="230">192.168.1.1</text><text fill="#212121" font-family="Arial, sans-serif" font-size="12px" font-weight="bold" text-anchor="middle" x="100.0" y="150">FIREWALL</text></g><g id="device-bcf07d8d-7e45-4df2-b28d-748e209ef21c"><rect fill="#BBDEFB" height="100" rx="5" ry="5" stroke="#333333" stroke-width="2" width="120" x="6.666666666666671" y="300" /><text fill="#212121" font-family="Arial, sans-serif" font-size="12px" font-weight="bold" text-anchor="middle" x="66.66666666666667" y="415">Web Server</text><text fill="#212121" font-family="Arial, sans-serif" font-size="10px" text-anchor="middle" x="66.66666666666667" y="430">192.168.1.10</text><text fill="#212121" font-family="Arial, sans-serif" font-size="12px" font-weight="bold" text-anchor="middle" x="66.66666666666667" y="350">SERVER</text></g><g id="device-01e48766-f199-469d-aa36-34f5bbf6277a"><rect fill="#BBDEFB" height="100" rx="5" ry="5" stroke="#333333" stroke-width="2" width="120" x="-10.0" y="200" /><text fill="#212121" font-family="Arial, sans-serif" font-size="12px" font-weight="bold" text-anchor="middle" x="50.0" y="315">Mail Server</text><text fill="#212121" font-family="Arial, sans-serif" font-size="10px" text-anchor="middle" x="50.0" y="330">192.168.1.20</text><text fill="#212121" font-family="Arial, sans-serif" font-size="12px" font-weight="bold" text-anchor="middle" x="50.0" y="250">SERVER</text></g><g id="device-ff21eb26-4c6f-41cf-8848-f71180696ba3"><rect fill="#FFE0B2" height="100" rx="5" ry="5" stroke="#333333" stroke-width="2" width="120" x="90.0" y="200" /><text fill="#212121" font-family="Arial, sans-serif" font-size="12px" font-weight="bold" text-anchor="middle" x="150.0" y="315">Load Balancer</text><text fill="#212121" font-family="Arial, sans-serif" font-size="10px" text-anchor="middle" x="150.0" y="330">192.168.1.5</text><text fill="#212121" font-family="Arial, sans-serif" font-size="12px" font-weight="bold" text-anchor="middle" x="150.0" y="250">LOAD_BALANCER</text></g><g id="device-2c3b5c1f-70e1-4dca-acdb-e46d222d1c5c"><rect fill="#FFCDD2" height="100" rx="5" ry="5" stroke="#333333" stroke-width="2" width="120" x="40.0" y="200" /><text fill="#212121" font-family="Arial, sans-serif" font-size="12px" font-weight="bold" text-anchor="middle" x="100.0" y="315">Internal Firewall</text><text fill="#212121" font-family="Arial, sans-serif" font-size="10px" text-anchor="middle" x="100.0" y="330">10.0.0.1</text><text fill="#212121" font-family="Arial, sans-serif" font-size="12px" font-weight="bold" text-anchor="middle" x="100.0" y="250">FIREWALL</text></g><g id="device-d6001fd1-95ee-4855-a29e-ba4ce5293ef1"><rect fill="#FFECB3" height="100" rx="5" ry="5" stroke="#333333" stroke-width="2" width="120" x="73.33333333333334" y="300" /><text fill="#212121" font-family="Arial, sans-serif" font-size="12px" font-weight="bold" text-anchor="middle" x="133.33333333333334" y="415">Core Router</text><text fill="#212121" font-family="Arial, sans-serif" font-size="10px" text-anchor="middle" x="133.33333333333334" y="430">10.0.0.2</text><text fill="#212121" font-family="Arial, sans-serif" font-size="12px" font-weight="bold" text-anchor="middle" x="133.33333333333334" y="350">ROUTER</text></g><g id="device-814d6243-d4f1-482e-bd78-b732d317855b"><rect fill="#CFD8DC" height="100" rx="5" ry="5" stroke="#333333" stroke-width="2" width="120" x="90.0" y="400" /><text fill="#212121" font-family="Arial, sans-serif" font-size="12px" font-weight="bold" text-anchor="middle" x="150.0" y="515">WiFi Controller</text><text fill="#212121" font-family="Arial, sans-serif" font-size="10px" text-anchor="middle" x="150.0" y="530">10.0.0.10</text><text fill="#212121" font-family="Arial, sans-serif" font-size="12px" font-weight="bold" text-anchor="middle" x="150.0" y="450">CUSTOM</text></g><g id="device-4c36867f-cd47-4c76-b8b1-43f1cf480d8d"><rect fill="#D1C4E9" height="100" rx="5" ry="5" stroke="#333333" stroke-width="2" width="120" x="-20.0" y="500" /><text fill="#212121" font-family="Arial, sans-serif" font-size="12px" font-weight="bold" text-anchor="middle" x="40.0" y="615">Workstation 1</text><text fill="#212121" font-family="Arial, sans-serif" font-size="10px" text-anchor="middle" x="40.0" y="630">10.0.1.101</text><text fill="#212121" font-family="Arial, sans-serif" font-size="12px" font-weight="bold" text-anchor="middle" x="40.0" y="550">WORKSTATION</text></g><g id="device-b0ccfaa5-a8e2-4795-897e-f60aca2f06d9"><rect fill="#D1C4E9" height="100" rx="5" ry="5" stroke="#333333" stroke-width="2" width="120" x="60.0" y="500" /><text fill="#212121" font-family="Arial, sans-serif" font-size="12px" font-weight="bold" text-anchor="middle" x="120.0" y="615">Workstation 2</text><text fill="#212121" font-family="Arial, sans-serif" font-size="10px" text-anchor="middle" x="120.0" y="630">10.0.1.102</text><text fill="#212121" font-family="Arial, sans-serif" font-size="12px" font-weight="bold" text-anchor="middle" x="120.0" y="550">WORKSTATION</text></g><g id="device-1d4141aa-a6fa-49ab-9554-b213c64d4521"><rect fill="#FFECB3" height="100" rx="5" ry="5" stroke="#333333" stroke-width="2" width="120" x="40.0" y="400" /><text fill="#212121" font-family="Arial, sans-serif" font-size="12px" font-weight="bold" text-anchor="middle" x="100.0" y="515">DC Router</text><text fill="#212121" font-family="Arial, sans-serif" font-size="10px" text-anchor="middle" x="100.0" y="530">10.10.0.1</text><text fill="#212121" font-family="Arial, sans-serif" font-size="12px" font-weight="bold" text-anchor="middle" x="100.0" y="450">ROUTER</text></g><g id="device-da0d8452-6021-43c6-88b2-0d56fb10fc40"><rect fill="#C8E6C9" height="100" rx="5" ry="5" stroke="#333333" stroke-width="2" width="120" x="100.0" y="500" /><text fill="#212121" font-family="Arial, sans-serif" font-size="12px" font-weight="bold" text-anchor="middle" x="160.0" y="615">DC Switch</text><text fill="#212121" font-family="Arial, sans-serif" font-size="10px" text-anchor="middle" x="160.0" y="630">10.10.0.2</text><text fill="#212121" font-family="Arial, sans-serif" font-size="12px" font-weight="bold" text-anchor="middle" x="160.0" y="550">SWITCH</text></g><g id="device-35aa40d7-da14-4ce2-8018-28c98cd17597"><rect fill="#BBDEFB" height="100" rx="5" ry="5" stroke="#333333" stroke-width="2" width="120" x="40.0" y="600" /><text fill="#212121" font-family="Arial, sans-serif" font-size="12px" font-weight="bold" text-anchor="middle" x="100.0" y="715">App Server</text><text fill="#212121" font-family="Arial, sans-serif" font-size="10px" text-anchor="middle" x="100.0" y="730">10.10.1.10</text><text fill="#212121" font-family="Arial, sans-serif" font-size="12px" font-weight="bold" text-anchor="middle" x="100.0" y="650">SERVER</text></g><g id="device-58f525bd-6385-4214-b7ea-9de338b9d1f9"><rect fill="#BBDEFB" height="100" rx="5" ry="5" stroke="#333333" stroke-width="2" width="120" x="90.0" y="600" /><text fill="#212121" font-family="Arial, sans-serif" font-size="12px" font-weight="bold" text-anchor="middle" x="150.0" y="715">DB Server</text><text fill="#212121" font-family="Arial, sans-serif" font-size="10px" text-anchor="middle" x="150.0" y="730">10.10.1.20</text><text fill="#212121" font-family="Arial, sans-serif" font-size="12px" font-weight="bold" text-anchor="middle" x="150.0" y="650">SERVER</text></g><g id="device-132ec78b-5570-47c7-86ad-afcee6ad0740"><rect fill="#F5F5F5" height="100" rx="5" ry="5" stroke="#333333" stroke-width="2" width="120" x="-10.0" y="600" /><text fill="#212121" font-family="Arial, sans-serif" font-size="12px" font-weight="bold" text-anchor="middle" x="50.0" y="715">SAN</text><text fill="#212121" font-family="Arial, sans-serif" font-size="10px" text-anchor="middle" x="50.0" y="730">10.10.1.30</text><text fill="#212121" font-family="Arial, sans-serif" font-size="12px" font-weight="bold" text-anchor="middle" x="50.0" y="650">STORAGE</text></g><g id="device-15781a1b-ec6d-4a79-901b-9ef7f73a2ddd"><rect fill="#E1BEE7" height="100" rx="5" ry="5" stroke="#333333" stroke-width="2" width="120" x="-10.0" y="400" /><text fill="#212121" font-family="Arial, sans-serif" font-size="12px" font-weight="bold" text-anchor="middle" x="50.0" y="515">VPN Gateway</text><text fill="#212121" font-family="Arial, sans-serif" font-size="10px" text-anchor="middle" x="50.0" y="530">10.0.0.100</text><text fill="#212121" font-family="Arial, sans-serif" font-size="12px" font-weight="bold" text-anchor="middle" x="50.0" y="450">GATEWAY</text></g><g id="device-4e0cf1e9-6875-4d61-99a3-a21daa7273fd"><rect fill="#E1F5FE" height="100" rx="5" ry="5" stroke="#333333" stroke-width="2" width="120" x="20.0" y="500" /><text fill="#212121" font-family="Arial, sans-serif" font-size="12px" font-weight="bold" text-anchor="middle" x="80.0" y="615">Cloud Services</text><text fill="#212121" font-family="Arial, sans-serif" font-size="12px" font-weight="bold" text-anchor="middle" x="80.0" y="550">CLOUD</text></g></g><g id="connections"><line stroke="#607D8B" stroke-width="2" x1="100.0" x2="100.0" y1="50" y2="150" /><line stroke="#4CAF50" stroke-width="2" x1="100.0" x2="150.0" y1="150" y2="250" /><line stroke="#4CAF50" stroke-width="2" x1="150.0" x2="66.66666666666667" y1="250" y2="350" /><line stroke="#4CAF50" stroke-width="2" x1="100.0" x2="50.0" y1="150" y2="250" /><line stroke="#4CAF50" stroke-width="2" x1="100.0" x2="100.0" y1="150" y2="250" /><line stroke="#4CAF50" stroke-width="2" x1="100.0" x2="133.33333333333334" y1="250" y2="350" /><line stroke="#4CAF50" stroke-width="2" x1="133.33333333333334" x2="150.0" y1="350" y2="450" /><line stroke="#9C27B0" stroke-dasharray="5,3" stroke-width="2" x1="150.0" x2="40.0" y1="450" y2="550" /><line stroke="#9C27B0" stroke-dasharray="5,3" stroke-width="2" x1="150.0" x2="120.0" y1="450" y2="550" /><line stroke="#2196F3" stroke-width="2" x1="133.33333333333334" x2="100.0" y1="350" y2="450" /><line stroke="#4CAF50" stroke-width="2" x1="100.0" x2="160.0" y1="450" y2="550" /><line stroke="#4CAF50" stroke-width="2" x1="160.0" x2="100.0" y1="550" y2="650" /><line stroke="#4CAF50" stroke-width="2" x1="160.0" x2="150.0" y1="550" y2="650" /><line stroke="#4CAF50" stroke-width="2" x1="160.0" x2="50.0" y1="550" y2="650" /><line stroke="#4CAF50" stroke-width="2" x1="133.33333333333334" x2="50.0" y1="350" y2="450" /><line stroke="#FF9800" stroke-dasharray="10,5" stroke-width="2" x1="50.0" x2="80.0" y1="450" y2="550" /></g><g id="labels"><rect fill="white" fill-opacity="0.7" height="20" rx="5" ry="5" stroke="none" width="80" x="60.0" y="90.0" /><text fill="#212121" font-family="Arial, sans-serif" font-size="10px" text-anchor="middle" x="100.0" y="100.0">1 Gbps</text><text fill="#212121" font-family="Arial, sans-serif" font-size="10px" font-style="italic" text-anchor="middle" x="100.0" y="85.0">TCP/IP</text><rect fill="white" fill-opacity="0.7" height="20" rx="5" ry="5" stroke="none" width="80" x="85.0" y="190.0" /><text fill="#212121" font-family="Arial, sans-serif" font-size="10px" text-anchor="middle" x="125.0" y="200.0">1 Gbps</text><rect fill="white" fill-opacity="0.7" height="20" rx="5" ry="5" stroke="none" width="80" x="68.33333333333334" y="290.0" /><text fill="#212121" font-family="Arial, sans-serif" font-size="10px" text-anchor="middle" x="108.33333333333334" y="300.0">1 Gbps</text><text fill="#212121" font-family="Arial, sans-serif" font-size="10px" font-style="italic" text-anchor="middle" x="108.33333333333334" y="285.0">HTTP/HTTPS</text><rect fill="white" fill-opacity="0.7" height="20" rx="5" ry="5" stroke="none" width="80" x="35.0" y="190.0" /><text fill="#212121" font-family="Arial, sans-serif" font-size="10px" text-anchor="middle" x="75.0" y="200.0">1 Gbps</text><text fill="#212121" font-family="Arial, sans-serif" font-size="10px" font-style="italic" text-anchor="middle" x="75.0" y="185.0">SMTP/IMAP</text><rect fill="white" fill-opacity="0.7" height="20" rx="5" ry="5" stroke="none" width="80" x="60.0" y="190.0" /><text fill="#212121" font-family="Arial, sans-serif" font-size="10px" text-anchor="middle" x="100.0" y="200.0">10 Gbps</text><rect fill="white" fill-opacity="0.7" height="20" rx="5" ry="5" stroke="none" width="80" x="76.66666666666667" y="290.0" /><text fill="#212121" font-family="Arial, sans-serif" font-size="10px" text-anchor="middle" x="116.66666666666667" y="300.0">10 Gbps</text><rect fill="white" fill-opacity="0.7" height="20" rx="5" ry="5" stroke="none" width="80" x="101.66666666666669" y="390.0" /><text fill="#212121" font-family="Arial, sans-serif" font-size="10px" text-anchor="middle" x="141.66666666666669" y="400.0">1 Gbps</text><rect fill="white" fill-opacity="0.7" height="20" rx="5" ry="5" stroke="none" width="80" x="55.0" y="490.0" /><text fill="#212121" font-family="Arial, sans-serif" font-size="10px" text-anchor="middle" x="95.0" y="500.0">300 Mbps</text><text fill="#212121" font-family="Arial, sans-serif" font-size="10px" font-style="italic" text-anchor="middle" x="95.0" y="485.0">802.11n</text><rect fill="white" fill-opacity="0.7" height="20" rx="5" ry="5" stroke="none" width="80" x="95.0" y="490.0" /><text fill="#212121" font-family="Arial, sans-serif" font-size="10px" text-anchor="middle" x="135.0" y="500.0">300 Mbps</text><text fill="#212121" font-family="Arial, sans-serif" font-size="10px" font-style="italic" text-anchor="middle" x="135.0" y="485.0">802.11n</text><rect fill="white" fill-opacity="0.7" height="20" rx="5" ry="5" stroke="none" width="80" x="76.66666666666667" y="390.0" /><text fill="#212121" font-family="Arial, sans-serif" font-size="10px" text-anchor="middle" x="116.66666666666667" y="400.0">40 Gbps</text><rect fill="white" fill-opacity="0.7" height="20" rx="5" ry="5" stroke="none" width="80" x="90.0" y="490.0" /><text fill="#212121" font-family="Arial, sans-serif" font-size="10px" text-anchor="middle" x="130.0" y="500.0">40 Gbps</text><rect fill="white" fill-opacity="0.7" height="20" rx="5" ry="5" stroke="none" width="80" x="90.0" y="590.0" /><text fill="#212121" font-family="Arial, sans-serif" font-size="10px" text-anchor="middle" x="130.0" y="600.0">10 Gbps</text><rect fill="white" fill-opacity="0.7" height="20" rx="5" ry="5" stroke="none" width="80" x="115.0" y="590.0" /><text fill="#212121" font-family="Arial, sans-serif" font-size="10px" text-anchor="middle" x="155.0" y="600.0">10 Gbps</text><rect fill="white" fill-opacity="0.7" height="20" rx="5" ry="5" stroke="none" width="80" x="65.0" y="590.0" /><text fill="#212121" font-family="Arial, sans-serif" font-size="10px" text-anchor="middle" x="105.0" y="600.0">10 Gbps</text><rect fill="white" fill-opacity="0.7" height="20" rx="5" ry="5" stroke="none" width="80" x="51.66666666666667" y="390.0" /><text fill="#212121" font-family="Arial, sans-serif" font-size="10px" text-anchor="middle" x="91.66666666666667" y="400.0">1 Gbps</text><rect fill="white" fill-opacity="0.7" height="20" rx="5" ry="5" stroke="none" width="80" x="25.0" y="490.0" /><text fill="#212121" font-family="Arial, sans-serif" font-size="10px" text-anchor="middle" x="65.0" y="500.0">500 Mbps</text><text fill="#212121" font-family="Arial, sans-serif" font-size="10px" font-style="italic" text-anchor="middle" x="65.0" y="485.0">IPSEC</text></g></svg>