<?xml version="1.0" encoding="utf-8" ?>
<svg baseProfile="full" height="800px" version="1.1" width="1000px" xmlns="http://www.w3.org/2000/svg" xmlns:ev="http://www.w3.org/2001/xml-events" xmlns:xlink="http://www.w3.org/1999/xlink"><defs><marker id="arrow" markerHeight="10" markerWidth="10" orient="auto" refX="10" refY="5"><path d="M0,0 L10,5 L0,10 L3,5 Z" fill="#000000" /></marker><marker id="hollow-arrow" markerHeight="10" markerWidth="10" orient="auto" refX="10" refY="5"><path d="M0,0 L10,5 L0,10 L3,5 Z" fill="#FFFFFF" stroke="#000000" stroke-width="1" /></marker></defs><g id="components"><rect fill="#E0E8FF" height="100" rx="5" ry="5" stroke="#2F4F4F" stroke-width="2" width="160" x="50" y="50" /><rect fill="#E0E8FF" height="20" rx="2" ry="2" stroke="#2F4F4F" stroke-width="1" width="30" x="170" y="60" /><rect fill="#E0E8FF" height="10" rx="1" ry="1" stroke="#2F4F4F" stroke-width="1" width="10" x="165" y="65" /><text fill="#696969" font-family="Arial, sans-serif" font-style="italic" text-anchor="middle" x="130.0" y="75">«subsystem»</text><text fill="#000000" font-family="Arial, sans-serif" font-weight="bold" text-anchor="middle" x="130.0" y="95">Web Application</text><rect fill="#E0E8FF" height="100" rx="5" ry="5" stroke="#2F4F4F" stroke-width="2" width="160" x="250" y="50" /><rect fill="#E0E8FF" height="20" rx="2" ry="2" stroke="#2F4F4F" stroke-width="1" width="30" x="370" y="60" /><rect fill="#E0E8FF" height="10" rx="1" ry="1" stroke="#2F4F4F" stroke-width="1" width="10" x="365" y="65" /><text fill="#000000" font-family="Arial, sans-serif" font-weight="bold" text-anchor="middle" x="330.0" y="75">API Gateway</text><rect fill="#E0E8FF" height="100" rx="5" ry="5" stroke="#2F4F4F" stroke-width="2" width="160" x="450" y="50" /><rect fill="#E0E8FF" height="20" rx="2" ry="2" stroke="#2F4F4F" stroke-width="1" width="30" x="570" y="60" /><rect fill="#E0E8FF" height="10" rx="1" ry="1" stroke="#2F4F4F" stroke-width="1" width="10" x="565" y="65" /><text fill="#000000" font-family="Arial, sans-serif" font-weight="bold" text-anchor="middle" x="530.0" y="75">Authentication Service</text><rect fill="#E0E8FF" height="100" rx="5" ry="5" stroke="#2F4F4F" stroke-width="2" width="160" x="50" y="190" /><rect fill="#E0E8FF" height="20" rx="2" ry="2" stroke="#2F4F4F" stroke-width="1" width="30" x="170" y="200" /><rect fill="#E0E8FF" height="10" rx="1" ry="1" stroke="#2F4F4F" stroke-width="1" width="10" x="165" y="205" /><text fill="#000000" font-family="Arial, sans-serif" font-weight="bold" text-anchor="middle" x="130.0" y="215">Catalog Service</text><rect fill="#E0E8FF" height="100" rx="5" ry="5" stroke="#2F4F4F" stroke-width="2" width="160" x="250" y="190" /><rect fill="#E0E8FF" height="20" rx="2" ry="2" stroke="#2F4F4F" stroke-width="1" width="30" x="370" y="200" /><rect fill="#E0E8FF" height="10" rx="1" ry="1" stroke="#2F4F4F" stroke-width="1" width="10" x="365" y="205" /><text fill="#000000" font-family="Arial, sans-serif" font-weight="bold" text-anchor="middle" x="330.0" y="215">Order Service</text><rect fill="#E0E8FF" height="100" rx="5" ry="5" stroke="#2F4F4F" stroke-width="2" width="160" x="450" y="190" /><rect fill="#E0E8FF" height="20" rx="2" ry="2" stroke="#2F4F4F" stroke-width="1" width="30" x="570" y="200" /><rect fill="#E0E8FF" height="10" rx="1" ry="1" stroke="#2F4F4F" stroke-width="1" width="10" x="565" y="205" /><text fill="#000000" font-family="Arial, sans-serif" font-weight="bold" text-anchor="middle" x="530.0" y="215">Payment Service</text><rect fill="#E0E8FF" height="100" rx="5" ry="5" stroke="#2F4F4F" stroke-width="2" width="160" x="50" y="330" /><rect fill="#E0E8FF" height="20" rx="2" ry="2" stroke="#2F4F4F" stroke-width="1" width="30" x="170" y="340" /><rect fill="#E0E8FF" height="10" rx="1" ry="1" stroke="#2F4F4F" stroke-width="1" width="10" x="165" y="345" /><text fill="#696969" font-family="Arial, sans-serif" font-style="italic" text-anchor="middle" x="130.0" y="355">«device»</text><text fill="#000000" font-family="Arial, sans-serif" font-weight="bold" text-anchor="middle" x="130.0" y="375">Database Server</text><text fill="#000000" font-family="Arial, sans-serif" font-style="italic" text-anchor="middle" x="130.0" y="395">(device)</text></g><g id="connectors"><line marker-end="url(#arrow)" stroke="#000000" stroke-dasharray="5,3" stroke-width="1.5" x1="50" x2="250" y1="50" y2="50" /><text fill="#000000" font-family="Arial, sans-serif" font-size="12px" text-anchor="middle" x="150.0" y="65.0">uses</text><line marker-end="url(#arrow)" stroke="#000000" stroke-dasharray="5,3" stroke-width="1.5" x1="250" x2="450" y1="50" y2="50" /><text fill="#000000" font-family="Arial, sans-serif" font-size="12px" text-anchor="middle" x="350.0" y="65.0">Connector_81c012ab</text><line marker-end="url(#arrow)" stroke="#000000" stroke-dasharray="5,3" stroke-width="1.5" x1="250" x2="50" y1="50" y2="190" /><text fill="#000000" font-family="Arial, sans-serif" font-size="12px" text-anchor="middle" x="141.39806483455007" y="107.71152119221439">Connector_5befe933</text><line marker-end="url(#arrow)" stroke="#000000" stroke-dasharray="5,3" stroke-width="1.5" x1="250" x2="250" y1="50" y2="190" /><text fill="#000000" font-family="Arial, sans-serif" font-size="12px" text-anchor="middle" x="235.0" y="120.0">Connector_369d48d4</text><line marker-end="url(#arrow)" stroke="#000000" stroke-dasharray="5,3" stroke-width="1.5" x1="250" x2="450" y1="190" y2="190" /><text fill="#000000" font-family="Arial, sans-serif" font-size="12px" text-anchor="middle" x="350.0" y="205.0">processes payments through</text><line marker-end="url(#arrow)" stroke="#000000" stroke-dasharray="5,3" stroke-width="1.5" x1="450" x2="50" y1="50" y2="330" /><text fill="#000000" font-family="Arial, sans-serif" font-size="12px" text-anchor="middle" x="241.39806483455007" y="177.7115211922144">Connector_e6e938e3</text><line marker-end="url(#arrow)" stroke="#000000" stroke-dasharray="5,3" stroke-width="1.5" x1="50" x2="50" y1="190" y2="330" /><text fill="#000000" font-family="Arial, sans-serif" font-size="12px" text-anchor="middle" x="35.0" y="260.0">Connector_c0e8dcf0</text><line marker-end="url(#arrow)" stroke="#000000" stroke-dasharray="5,3" stroke-width="1.5" x1="250" x2="50" y1="190" y2="330" /><text fill="#000000" font-family="Arial, sans-serif" font-size="12px" text-anchor="middle" x="141.39806483455007" y="247.7115211922144">Connector_4b5a0cd4</text><line marker-end="url(#arrow)" stroke="#000000" stroke-dasharray="5,3" stroke-width="1.5" x1="450" x2="50" y1="190" y2="330" /><text fill="#000000" font-family="Arial, sans-serif" font-size="12px" text-anchor="middle" x="245.0447436290784" y="245.84212465450975">Connector_afd61c46</text></g><g id="interfaces"><line stroke="#000000" stroke-width="1.5" x1="410" x2="425" y1="100.0" y2="100.0" /><circle cx="435" cy="100.0" fill="#FFFFFF" r="10" stroke="#000000" stroke-width="1.5" /><text fill="#000000" font-family="Arial, sans-serif" font-size="12px" x="450" y="105.0">REST API</text><line stroke="#000000" stroke-width="1.5" x1="250" x2="235" y1="75.0" y2="75.0" /><path d="M 235 65.0 A 10 10 0 0 0 235 85.0" fill="none" stroke="#000000" stroke-width="1.5" /><text fill="#000000" font-family="Arial, sans-serif" font-size="12px" text-anchor="end" x="210" y="80.0">Auth API</text><line stroke="#000000" stroke-width="1.5" x1="250" x2="235" y1="100.0" y2="100.0" /><path d="M 235 90.0 A 10 10 0 0 0 235 110.0" fill="none" stroke="#000000" stroke-width="1.5" /><text fill="#000000" font-family="Arial, sans-serif" font-size="12px" text-anchor="end" x="210" y="105.0">Catalog API</text><line stroke="#000000" stroke-width="1.5" x1="250" x2="235" y1="125.0" y2="125.0" /><path d="M 235 115.0 A 10 10 0 0 0 235 135.0" fill="none" stroke="#000000" stroke-width="1.5" /><text fill="#000000" font-family="Arial, sans-serif" font-size="12px" text-anchor="end" x="210" y="130.0">Order API</text><line stroke="#000000" stroke-width="1.5" x1="610" x2="625" y1="100.0" y2="100.0" /><circle cx="635" cy="100.0" fill="#FFFFFF" r="10" stroke="#000000" stroke-width="1.5" /><text fill="#000000" font-family="Arial, sans-serif" font-size="12px" x="650" y="105.0">Auth API</text><line stroke="#000000" stroke-width="1.5" x1="450" x2="435" y1="100.0" y2="100.0" /><path d="M 435 90.0 A 10 10 0 0 0 435 110.0" fill="none" stroke="#000000" stroke-width="1.5" /><text fill="#000000" font-family="Arial, sans-serif" font-size="12px" text-anchor="end" x="410" y="105.0">Auth DB</text><line stroke="#000000" stroke-width="1.5" x1="210" x2="225" y1="240.0" y2="240.0" /><circle cx="235" cy="240.0" fill="#FFFFFF" r="10" stroke="#000000" stroke-width="1.5" /><text fill="#000000" font-family="Arial, sans-serif" font-size="12px" x="250" y="245.0">Catalog API</text><line stroke="#000000" stroke-width="1.5" x1="50" x2="35" y1="240.0" y2="240.0" /><path d="M 35 230.0 A 10 10 0 0 0 35 250.0" fill="none" stroke="#000000" stroke-width="1.5" /><text fill="#000000" font-family="Arial, sans-serif" font-size="12px" text-anchor="end" x="10" y="245.0">Catalog DB</text><line stroke="#000000" stroke-width="1.5" x1="410" x2="425" y1="240.0" y2="240.0" /><circle cx="435" cy="240.0" fill="#FFFFFF" r="10" stroke="#000000" stroke-width="1.5" /><text fill="#000000" font-family="Arial, sans-serif" font-size="12px" x="450" y="245.0">Order API</text><line stroke="#000000" stroke-width="1.5" x1="250" x2="235" y1="223.33333333333334" y2="223.33333333333334" /><path d="M 235 213.33333333333334 A 10 10 0 0 0 235 233.33333333333334" fill="none" stroke="#000000" stroke-width="1.5" /><text fill="#000000" font-family="Arial, sans-serif" font-size="12px" text-anchor="end" x="210" y="228.33333333333334">Payment Processing</text><line stroke="#000000" stroke-width="1.5" x1="250" x2="235" y1="256.6666666666667" y2="256.6666666666667" /><path d="M 235 246.66666666666669 A 10 10 0 0 0 235 266.6666666666667" fill="none" stroke="#000000" stroke-width="1.5" /><text fill="#000000" font-family="Arial, sans-serif" font-size="12px" text-anchor="end" x="210" y="261.6666666666667">Order DB</text><line stroke="#000000" stroke-width="1.5" x1="610" x2="625" y1="240.0" y2="240.0" /><circle cx="635" cy="240.0" fill="#FFFFFF" r="10" stroke="#000000" stroke-width="1.5" /><text fill="#000000" font-family="Arial, sans-serif" font-size="12px" x="650" y="245.0">Payment API</text><line stroke="#000000" stroke-width="1.5" x1="450" x2="435" y1="240.0" y2="240.0" /><path d="M 435 230.0 A 10 10 0 0 0 435 250.0" fill="none" stroke="#000000" stroke-width="1.5" /><text fill="#000000" font-family="Arial, sans-serif" font-size="12px" text-anchor="end" x="410" y="245.0">Payment DB</text></g><g id="ports" /><g id="artifacts"><rect fill="#F8F8FF" height="80" stroke="#696969" stroke-width="1.5" width="160" x="790" y="50" /><path d="M 935 50 L 950 65 L 950 50 Z" fill="#F8F8FF" stroke="#696969" stroke-width="1.5" /><path d="M 935 50 L 935 65 L 950 65" fill="none" stroke="#696969" stroke-width="1.5" /><text fill="#696969" font-family="Arial, sans-serif" font-style="italic" text-anchor="middle" x="870.0" y="70">«artifact»</text><text fill="#000000" font-family="Arial, sans-serif" font-weight="bold" text-anchor="middle" x="870.0" y="90">web-app.war</text><rect fill="#F8F8FF" height="80" stroke="#696969" stroke-width="1.5" width="160" x="790" y="170" /><path d="M 935 170 L 950 185 L 950 170 Z" fill="#F8F8FF" stroke="#696969" stroke-width="1.5" /><path d="M 935 170 L 935 185 L 950 185" fill="none" stroke="#696969" stroke-width="1.5" /><text fill="#696969" font-family="Arial, sans-serif" font-style="italic" text-anchor="middle" x="870.0" y="190">«artifact»</text><text fill="#000000" font-family="Arial, sans-serif" font-weight="bold" text-anchor="middle" x="870.0" y="210">api-gateway.jar</text><rect fill="#F8F8FF" height="80" stroke="#696969" stroke-width="1.5" width="160" x="790" y="290" /><path d="M 935 290 L 950 305 L 950 290 Z" fill="#F8F8FF" stroke="#696969" stroke-width="1.5" /><path d="M 935 290 L 935 305 L 950 305" fill="none" stroke="#696969" stroke-width="1.5" /><text fill="#696969" font-family="Arial, sans-serif" font-style="italic" text-anchor="middle" x="870.0" y="310">«artifact»</text><text fill="#000000" font-family="Arial, sans-serif" font-weight="bold" text-anchor="middle" x="870.0" y="330">auth-service.jar</text><rect fill="#F8F8FF" height="80" stroke="#696969" stroke-width="1.5" width="160" x="790" y="410" /><path d="M 935 410 L 950 425 L 950 410 Z" fill="#F8F8FF" stroke="#696969" stroke-width="1.5" /><path d="M 935 410 L 935 425 L 950 425" fill="none" stroke="#696969" stroke-width="1.5" /><text fill="#696969" font-family="Arial, sans-serif" font-style="italic" text-anchor="middle" x="870.0" y="430">«artifact»</text><text fill="#000000" font-family="Arial, sans-serif" font-weight="bold" text-anchor="middle" x="870.0" y="450">catalog-service.jar</text><rect fill="#F8F8FF" height="80" stroke="#696969" stroke-width="1.5" width="160" x="790" y="530" /><path d="M 935 530 L 950 545 L 950 530 Z" fill="#F8F8FF" stroke="#696969" stroke-width="1.5" /><path d="M 935 530 L 935 545 L 950 545" fill="none" stroke="#696969" stroke-width="1.5" /><text fill="#696969" font-family="Arial, sans-serif" font-style="italic" text-anchor="middle" x="870.0" y="550">«artifact»</text><text fill="#000000" font-family="Arial, sans-serif" font-weight="bold" text-anchor="middle" x="870.0" y="570">order-service.jar</text><rect fill="#F8F8FF" height="80" stroke="#696969" stroke-width="1.5" width="160" x="790" y="650" /><path d="M 935 650 L 950 665 L 950 650 Z" fill="#F8F8FF" stroke="#696969" stroke-width="1.5" /><path d="M 935 650 L 935 665 L 950 665" fill="none" stroke="#696969" stroke-width="1.5" /><text fill="#696969" font-family="Arial, sans-serif" font-style="italic" text-anchor="middle" x="870.0" y="670">«artifact»</text><text fill="#000000" font-family="Arial, sans-serif" font-weight="bold" text-anchor="middle" x="870.0" y="690">payment-service.jar</text></g></svg>