<?xml version="1.0" encoding="UTF-8" standalone="no"?>
<!DOCTYPE svg PUBLIC "-//W3C//DTD SVG 1.1//EN"
 "http://www.w3.org/Graphics/SVG/1.1/DTD/svg11.dtd">
<!-- Generated by graphviz version 2.43.0 (0)
 -->
<!-- Title: E&#45;commerce System Entity Relationship Diagram Pages: 1 -->
<svg width="4896pt" height="2358pt"
 viewBox="0.00 0.00 1175.00 566.00" xmlns="http://www.w3.org/2000/svg" xmlns:xlink="http://www.w3.org/1999/xlink">
<g id="graph0" class="graph" transform="scale(4.17 4.17) rotate(0) translate(4 562)">
<title>E&#45;commerce System Entity Relationship Diagram</title>
<polygon fill="white" stroke="transparent" points="-4,4 -4,-562 1171,-562 1171,4 -4,4"/>
<!-- ab681df0&#45;57e9&#45;473d&#45;b804&#45;7504d6c42638 -->
<g id="node1" class="node">
<title>ab681df0&#45;57e9&#45;473d&#45;b804&#45;7504d6c42638</title>
<polygon fill="white" stroke="transparent" points="212,-410 0,-410 0,-242 212,-242 212,-410"/>
<polygon fill="#ececfc" stroke="transparent" points="0,-389 0,-410 212,-410 212,-389 0,-389"/>
<polygon fill="none" stroke="#333333" points="0,-389 0,-410 212,-410 212,-389 0,-389"/>
<text text-anchor="start" x="83" y="-398" font-family="Arial" font-weight="bold" font-size="10.00">Customer</text>
<polygon fill="none" stroke="#333333" points="0,-368 0,-389 212,-389 212,-368 0,-368"/>
<text text-anchor="start" x="5" y="-376" font-family="Arial" font-size="10.00">🔑 customer_id : INTEGER NOT NULL</text>
<polygon fill="none" stroke="#333333" points="0,-347 0,-368 212,-368 212,-347 0,-347"/>
<text text-anchor="start" x="5" y="-355" font-family="Arial" font-size="10.00">email : VARCHAR(255) NOT NULL UNIQUE</text>
<polygon fill="none" stroke="#333333" points="0,-326 0,-347 212,-347 212,-326 0,-326"/>
<text text-anchor="start" x="5" y="-334" font-family="Arial" font-size="10.00">first_name : VARCHAR(100) NOT NULL</text>
<polygon fill="none" stroke="#333333" points="0,-305 0,-326 212,-326 212,-305 0,-305"/>
<text text-anchor="start" x="5" y="-313" font-family="Arial" font-size="10.00">last_name : VARCHAR(100) NOT NULL</text>
<polygon fill="none" stroke="#333333" points="0,-284 0,-305 212,-305 212,-284 0,-284"/>
<text text-anchor="start" x="5" y="-292" font-family="Arial" font-size="10.00">password_hash : VARCHAR(255) NOT NULL</text>
<polygon fill="none" stroke="#333333" points="0,-263 0,-284 212,-284 212,-263 0,-263"/>
<text text-anchor="start" x="5" y="-271" font-family="Arial" font-size="10.00">created_at : TIMESTAMP NOT NULL</text>
<polygon fill="none" stroke="#333333" points="0,-242 0,-263 212,-263 212,-242 0,-242"/>
<text text-anchor="start" x="5" y="-250" font-family="Arial" font-size="10.00">last_login : TIMESTAMP</text>
</g>
<!-- f2c8fe5d&#45;c3a3&#45;475a&#45;b4cf&#45;a74ac4e8754b -->
<g id="node2" class="node">
<title>f2c8fe5d&#45;c3a3&#45;475a&#45;b4cf&#45;a74ac4e8754b</title>
<polygon fill="white" stroke="transparent" points="509,-558 301,-558 301,-348 509,-348 509,-558"/>
<polygon fill="#ececfc" stroke="transparent" points="301,-537 301,-558 509,-558 509,-537 301,-537"/>
<polygon fill="none" stroke="#333333" points="301,-537 301,-558 509,-558 509,-537 301,-537"/>
<text text-anchor="start" x="385" y="-546" font-family="Arial" font-weight="bold" font-size="10.00">Address</text>
<polygon fill="none" stroke="#333333" points="301,-516 301,-537 509,-537 509,-516 301,-516"/>
<text text-anchor="start" x="306" y="-524" font-family="Arial" font-size="10.00">🔑 address_id : INTEGER NOT NULL</text>
<polygon fill="none" stroke="#333333" points="301,-495 301,-516 509,-516 509,-495 301,-495"/>
<text text-anchor="start" x="306" y="-503" font-family="Arial" font-size="10.00">🔗 customer_id : INTEGER NOT NULL</text>
<polygon fill="none" stroke="#333333" points="301,-474 301,-495 509,-495 509,-474 301,-474"/>
<text text-anchor="start" x="306" y="-482" font-family="Arial" font-size="10.00">address_type : VARCHAR(20) NOT NULL</text>
<polygon fill="none" stroke="#333333" points="301,-453 301,-474 509,-474 509,-453 301,-453"/>
<text text-anchor="start" x="306" y="-461" font-family="Arial" font-size="10.00">street_address : VARCHAR(255) NOT NULL</text>
<polygon fill="none" stroke="#333333" points="301,-432 301,-453 509,-453 509,-432 301,-432"/>
<text text-anchor="start" x="306" y="-440" font-family="Arial" font-size="10.00">city : VARCHAR(100) NOT NULL</text>
<polygon fill="none" stroke="#333333" points="301,-411 301,-432 509,-432 509,-411 301,-411"/>
<text text-anchor="start" x="306" y="-419" font-family="Arial" font-size="10.00">state : VARCHAR(100) NOT NULL</text>
<polygon fill="none" stroke="#333333" points="301,-390 301,-411 509,-411 509,-390 301,-390"/>
<text text-anchor="start" x="306" y="-398" font-family="Arial" font-size="10.00">postal_code : VARCHAR(20) NOT NULL</text>
<polygon fill="none" stroke="#333333" points="301,-369 301,-390 509,-390 509,-369 301,-369"/>
<text text-anchor="start" x="306" y="-377" font-family="Arial" font-size="10.00">country : VARCHAR(100) NOT NULL</text>
<polygon fill="none" stroke="#333333" points="301,-348 301,-369 509,-369 509,-348 301,-348"/>
<text text-anchor="start" x="306" y="-356" font-family="Arial" font-size="10.00">is_default : BOOLEAN NOT NULL</text>
</g>
<!-- ab681df0&#45;57e9&#45;473d&#45;b804&#45;7504d6c42638&#45;&gt;f2c8fe5d&#45;c3a3&#45;475a&#45;b4cf&#45;a74ac4e8754b -->
<g id="edge1" class="edge">
<title>ab681df0&#45;57e9&#45;473d&#45;b804&#45;7504d6c42638&#45;&gt;f2c8fe5d&#45;c3a3&#45;475a&#45;b4cf&#45;a74ac4e8754b</title>
<path fill="none" stroke="#43a047" d="M217.26,-379C217.26,-379 290.84,-379 290.84,-379"/>
<polygon fill="#43a047" stroke="#43a047" points="299.84,-374 299.84,-384 297.84,-384 297.84,-374 299.84,-374"/>
<polyline fill="none" stroke="#43a047" points="300.84,-379 295.84,-379 "/>
<polygon fill="#43a047" stroke="#43a047" points="222.26,-379 212.26,-374.5 217.26,-379 212.26,-379 212.26,-379 212.26,-379 217.26,-379 212.26,-383.5 222.26,-379 222.26,-379"/>
<text text-anchor="middle" x="256.5" y="-415.8" font-family="Arial" font-size="9.00">Has</text>
<text text-anchor="middle" x="219.26" y="-371.8" font-family="Arial" font-size="9.00">0..*</text>
<text text-anchor="middle" x="297.84" y="-371.8" font-family="Arial" font-size="9.00">1</text>
</g>
<!-- fbac0569&#45;15ee&#45;4ac4&#45;9a76&#45;454fcb78b62b -->
<g id="node5" class="node">
<title>fbac0569&#45;15ee&#45;4ac4&#45;9a76&#45;454fcb78b62b</title>
<polygon fill="white" stroke="transparent" points="839,-465.5 618,-465.5 618,-276.5 839,-276.5 839,-465.5"/>
<polygon fill="#ececfc" stroke="transparent" points="618.5,-444 618.5,-465 839.5,-465 839.5,-444 618.5,-444"/>
<polygon fill="none" stroke="#333333" points="618.5,-444 618.5,-465 839.5,-465 839.5,-444 618.5,-444"/>
<text text-anchor="start" x="715.5" y="-453" font-family="Arial" font-weight="bold" font-size="10.00">Order</text>
<polygon fill="none" stroke="#333333" points="618.5,-423 618.5,-444 839.5,-444 839.5,-423 618.5,-423"/>
<text text-anchor="start" x="623.5" y="-431" font-family="Arial" font-size="10.00">🔑 order_id : INTEGER NOT NULL</text>
<polygon fill="none" stroke="#333333" points="618.5,-402 618.5,-423 839.5,-423 839.5,-402 618.5,-402"/>
<text text-anchor="start" x="623.5" y="-410" font-family="Arial" font-size="10.00">🔗 customer_id : INTEGER NOT NULL</text>
<polygon fill="none" stroke="#333333" points="618.5,-381 618.5,-402 839.5,-402 839.5,-381 618.5,-381"/>
<text text-anchor="start" x="623.5" y="-389" font-family="Arial" font-size="10.00">🔗 shipping_address_id : INTEGER NOT NULL</text>
<polygon fill="none" stroke="#333333" points="618.5,-360 618.5,-381 839.5,-381 839.5,-360 618.5,-360"/>
<text text-anchor="start" x="623.5" y="-368" font-family="Arial" font-size="10.00">🔗 billing_address_id : INTEGER NOT NULL</text>
<polygon fill="none" stroke="#333333" points="618.5,-339 618.5,-360 839.5,-360 839.5,-339 618.5,-339"/>
<text text-anchor="start" x="623.5" y="-347" font-family="Arial" font-size="10.00">order_date : TIMESTAMP NOT NULL</text>
<polygon fill="none" stroke="#333333" points="618.5,-318 618.5,-339 839.5,-339 839.5,-318 618.5,-318"/>
<text text-anchor="start" x="623.5" y="-326" font-family="Arial" font-size="10.00">order_status : VARCHAR(20) NOT NULL</text>
<polygon fill="none" stroke="#333333" points="618.5,-297 618.5,-318 839.5,-318 839.5,-297 618.5,-297"/>
<text text-anchor="start" x="623.5" y="-305" font-family="Arial" font-size="10.00">total_amount : DECIMAL(10,2) NOT NULL</text>
<polygon fill="none" stroke="#333333" points="618.5,-276 618.5,-297 839.5,-297 839.5,-276 618.5,-276"/>
<text text-anchor="start" x="623.5" y="-284" font-family="Arial" font-size="10.00">payment_method : VARCHAR(50) NOT NULL</text>
</g>
<!-- ab681df0&#45;57e9&#45;473d&#45;b804&#45;7504d6c42638&#45;&gt;fbac0569&#45;15ee&#45;4ac4&#45;9a76&#45;454fcb78b62b -->
<g id="edge2" class="edge">
<title>ab681df0&#45;57e9&#45;473d&#45;b804&#45;7504d6c42638&#45;&gt;fbac0569&#45;15ee&#45;4ac4&#45;9a76&#45;454fcb78b62b</title>
<path fill="none" stroke="#43a047" d="M217.3,-312.25C217.3,-312.25 607.92,-312.25 607.92,-312.25"/>
<polygon fill="#43a047" stroke="#43a047" points="616.92,-307.25 616.92,-317.25 614.92,-317.25 614.92,-307.25 616.92,-307.25"/>
<polyline fill="none" stroke="#43a047" points="617.92,-312.25 612.92,-312.25 "/>
<polygon fill="#43a047" stroke="#43a047" points="222.3,-312.25 212.3,-307.75 217.3,-312.25 212.3,-312.25 212.3,-312.25 212.3,-312.25 217.3,-312.25 212.3,-316.75 222.3,-312.25 222.3,-312.25"/>
<text text-anchor="middle" x="405" y="-282.8" font-family="Arial" font-size="9.00">Places</text>
<text text-anchor="middle" x="219.3" y="-305.05" font-family="Arial" font-size="9.00">0..*</text>
<text text-anchor="middle" x="614.92" y="-305.05" font-family="Arial" font-size="9.00">1</text>
</g>
<!-- f2c8fe5d&#45;c3a3&#45;475a&#45;b4cf&#45;a74ac4e8754b&#45;&gt;fbac0569&#45;15ee&#45;4ac4&#45;9a76&#45;454fcb78b62b -->
<g id="edge8" class="edge">
<title>f2c8fe5d&#45;c3a3&#45;475a&#45;b4cf&#45;a74ac4e8754b&#45;&gt;fbac0569&#45;15ee&#45;4ac4&#45;9a76&#45;454fcb78b62b</title>
<path fill="none" stroke="#43a047" d="M514.14,-387.17C514.14,-387.17 607.86,-387.17 607.86,-387.17"/>
<polygon fill="#43a047" stroke="#43a047" points="616.86,-382.17 616.86,-392.17 614.86,-392.17 614.86,-382.17 616.86,-382.17"/>
<polyline fill="none" stroke="#43a047" points="617.86,-387.17 612.86,-387.17 "/>
<polygon fill="#43a047" stroke="#43a047" points="519.14,-387.17 509.14,-382.67 514.14,-387.17 509.14,-387.17 509.14,-387.17 509.14,-387.17 514.14,-387.17 509.14,-391.67 519.14,-387.17 519.14,-387.17"/>
<text text-anchor="middle" x="563.5" y="-453.8" font-family="Arial" font-size="9.00">ShipsTo</text>
<text text-anchor="middle" x="516.14" y="-379.97" font-family="Arial" font-size="9.00">0..*</text>
<text text-anchor="middle" x="575.36" y="-389.97" font-family="Arial" font-size="9.00">1 (ShippingAddress)</text>
</g>
<!-- f2c8fe5d&#45;c3a3&#45;475a&#45;b4cf&#45;a74ac4e8754b&#45;&gt;fbac0569&#45;15ee&#45;4ac4&#45;9a76&#45;454fcb78b62b -->
<g id="edge9" class="edge">
<title>f2c8fe5d&#45;c3a3&#45;475a&#45;b4cf&#45;a74ac4e8754b&#45;&gt;fbac0569&#45;15ee&#45;4ac4&#45;9a76&#45;454fcb78b62b</title>
<path fill="none" stroke="#43a047" d="M514.14,-426.33C514.14,-426.33 607.86,-426.33 607.86,-426.33"/>
<polygon fill="#43a047" stroke="#43a047" points="616.86,-421.33 616.86,-431.33 614.86,-431.33 614.86,-421.33 616.86,-421.33"/>
<polyline fill="none" stroke="#43a047" points="617.86,-426.33 612.86,-426.33 "/>
<polygon fill="#43a047" stroke="#43a047" points="519.14,-426.33 509.14,-421.83 514.14,-426.33 509.14,-426.33 509.14,-426.33 509.14,-426.33 514.14,-426.33 509.14,-430.83 519.14,-426.33 519.14,-426.33"/>
<text text-anchor="middle" x="563.5" y="-378.8" font-family="Arial" font-size="9.00">BillsTo</text>
<text text-anchor="middle" x="516.14" y="-419.13" font-family="Arial" font-size="9.00">0..*</text>
<text text-anchor="middle" x="581.36" y="-419.13" font-family="Arial" font-size="9.00">1 (BillingAddress)</text>
</g>
<!-- 757bfde0&#45;b655&#45;4160&#45;a786&#45;37039d01ddfd -->
<g id="node3" class="node">
<title>757bfde0&#45;b655&#45;4160&#45;a786&#45;37039d01ddfd</title>
<polygon fill="white" stroke="transparent" points="496.5,-135.5 313.5,-135.5 313.5,-30.5 496.5,-30.5 496.5,-135.5"/>
<polygon fill="#ececfc" stroke="transparent" points="314,-114 314,-135 497,-135 497,-114 314,-114"/>
<polygon fill="none" stroke="#333333" points="314,-114 314,-135 497,-135 497,-114 314,-114"/>
<text text-anchor="start" x="384" y="-123" font-family="Arial" font-weight="bold" font-size="10.00">Category</text>
<polygon fill="none" stroke="#333333" points="314,-93 314,-114 497,-114 497,-93 314,-93"/>
<text text-anchor="start" x="319" y="-101" font-family="Arial" font-size="10.00">🔑 category_id : INTEGER NOT NULL</text>
<polygon fill="none" stroke="#333333" points="314,-72 314,-93 497,-93 497,-72 314,-72"/>
<text text-anchor="start" x="319" y="-80" font-family="Arial" font-size="10.00">🔗 parent_category_id : INTEGER</text>
<polygon fill="none" stroke="#333333" points="314,-51 314,-72 497,-72 497,-51 314,-51"/>
<text text-anchor="start" x="319" y="-59" font-family="Arial" font-size="10.00">name : VARCHAR(100) NOT NULL</text>
<polygon fill="none" stroke="#333333" points="314,-30 314,-51 497,-51 497,-30 314,-30"/>
<text text-anchor="start" x="319" y="-38" font-family="Arial" font-size="10.00">description : TEXT</text>
</g>
<!-- 757bfde0&#45;b655&#45;4160&#45;a786&#45;37039d01ddfd&#45;&gt;757bfde0&#45;b655&#45;4160&#45;a786&#45;37039d01ddfd -->
<g id="edge4" class="edge">
<title>757bfde0&#45;b655&#45;4160&#45;a786&#45;37039d01ddfd&#45;&gt;757bfde0&#45;b655&#45;4160&#45;a786&#45;37039d01ddfd</title>
<path fill="none" stroke="#43a047" d="M308.55,-83C308.55,-83 308,-83 308,-83 308,-83 308,-15.25 308,-15.25 308,-15.25 503,-15.25 503,-15.25 503,-15.25 503,-100.5 503,-100.5 503,-100.5 502.36,-100.5 502.36,-100.5"/>
<polygon fill="#43a047" stroke="#43a047" points="312.49,-78 312.49,-88 310.49,-88 310.49,-78 312.49,-78"/>
<polyline fill="none" stroke="#43a047" points="313.49,-83 308.49,-83 "/>
<polygon fill="#43a047" stroke="#43a047" points="506.57,-100.5 496.57,-96 501.57,-100.5 496.57,-100.5 496.57,-100.5 496.57,-100.5 501.57,-100.5 496.57,-105 506.57,-100.5 506.57,-100.5"/>
<text text-anchor="middle" x="392.3" y="-8.05" font-family="Arial" font-size="9.00">HasParent</text>
<text text-anchor="middle" x="518.57" y="-93.3" font-family="Arial" font-size="9.00">0..* (Child)</text>
<text text-anchor="middle" x="287.99" y="-75.8" font-family="Arial" font-size="9.00">0..1 (Parent)</text>
</g>
<!-- a8e17873&#45;ba17&#45;43b0&#45;9d9f&#45;3a4714e2997d -->
<g id="node4" class="node">
<title>a8e17873&#45;ba17&#45;43b0&#45;9d9f&#45;3a4714e2997d</title>
<polygon fill="white" stroke="transparent" points="827,-210 630,-210 630,0 827,0 827,-210"/>
<polygon fill="#ececfc" stroke="transparent" points="630.5,-189 630.5,-210 827.5,-210 827.5,-189 630.5,-189"/>
<polygon fill="none" stroke="#333333" points="630.5,-189 630.5,-210 827.5,-210 827.5,-189 630.5,-189"/>
<text text-anchor="start" x="710.5" y="-198" font-family="Arial" font-weight="bold" font-size="10.00">Product</text>
<polygon fill="none" stroke="#333333" points="630.5,-168 630.5,-189 827.5,-189 827.5,-168 630.5,-168"/>
<text text-anchor="start" x="635.5" y="-176" font-family="Arial" font-size="10.00">🔑 product_id : INTEGER NOT NULL</text>
<polygon fill="none" stroke="#333333" points="630.5,-147 630.5,-168 827.5,-168 827.5,-147 630.5,-147"/>
<text text-anchor="start" x="635.5" y="-155" font-family="Arial" font-size="10.00">🔗 category_id : INTEGER NOT NULL</text>
<polygon fill="none" stroke="#333333" points="630.5,-126 630.5,-147 827.5,-147 827.5,-126 630.5,-126"/>
<text text-anchor="start" x="635.5" y="-134" font-family="Arial" font-size="10.00">name : VARCHAR(255) NOT NULL</text>
<polygon fill="none" stroke="#333333" points="630.5,-105 630.5,-126 827.5,-126 827.5,-105 630.5,-105"/>
<text text-anchor="start" x="635.5" y="-113" font-family="Arial" font-size="10.00">description : TEXT</text>
<polygon fill="none" stroke="#333333" points="630.5,-84 630.5,-105 827.5,-105 827.5,-84 630.5,-84"/>
<text text-anchor="start" x="635.5" y="-92" font-family="Arial" font-size="10.00">sku : VARCHAR(50) NOT NULL UNIQUE</text>
<polygon fill="none" stroke="#333333" points="630.5,-63 630.5,-84 827.5,-84 827.5,-63 630.5,-63"/>
<text text-anchor="start" x="635.5" y="-71" font-family="Arial" font-size="10.00">price : DECIMAL(10,2) NOT NULL</text>
<polygon fill="none" stroke="#333333" points="630.5,-42 630.5,-63 827.5,-63 827.5,-42 630.5,-42"/>
<text text-anchor="start" x="635.5" y="-50" font-family="Arial" font-size="10.00">stock_quantity : INTEGER NOT NULL</text>
<polygon fill="none" stroke="#333333" points="630.5,-21 630.5,-42 827.5,-42 827.5,-21 630.5,-21"/>
<text text-anchor="start" x="635.5" y="-29" font-family="Arial" font-size="10.00">is_active : BOOLEAN NOT NULL</text>
<polygon fill="none" stroke="#333333" points="630.5,0 630.5,-21 827.5,-21 827.5,0 630.5,0"/>
<text text-anchor="start" x="635.5" y="-8" font-family="Arial" font-size="10.00">created_at : TIMESTAMP NOT NULL</text>
</g>
<!-- 757bfde0&#45;b655&#45;4160&#45;a786&#45;37039d01ddfd&#45;&gt;a8e17873&#45;ba17&#45;43b0&#45;9d9f&#45;3a4714e2997d -->
<g id="edge3" class="edge">
<title>757bfde0&#45;b655&#45;4160&#45;a786&#45;37039d01ddfd&#45;&gt;a8e17873&#45;ba17&#45;43b0&#45;9d9f&#45;3a4714e2997d</title>
<path fill="none" stroke="#43a047" d="M501.84,-65.5C501.84,-65.5 619.93,-65.5 619.93,-65.5"/>
<polygon fill="#43a047" stroke="#43a047" points="628.93,-60.5 628.93,-70.5 626.93,-70.5 626.93,-60.5 628.93,-60.5"/>
<polyline fill="none" stroke="#43a047" points="629.93,-65.5 624.93,-65.5 "/>
<polygon fill="#43a047" stroke="#43a047" points="506.84,-65.5 496.84,-61 501.84,-65.5 496.84,-65.5 496.84,-65.5 496.84,-65.5 501.84,-65.5 496.84,-70 506.84,-65.5 506.84,-65.5"/>
<text text-anchor="middle" x="563.5" y="-91.8" font-family="Arial" font-size="9.00">Contains</text>
<text text-anchor="middle" x="503.84" y="-58.3" font-family="Arial" font-size="9.00">0..*</text>
<text text-anchor="middle" x="626.93" y="-58.3" font-family="Arial" font-size="9.00">1</text>
</g>
<!-- 31202e25&#45;faa7&#45;4f16&#45;a716&#45;6650fe50846d -->
<g id="node6" class="node">
<title>31202e25&#45;faa7&#45;4f16&#45;a716&#45;6650fe50846d</title>
<polygon fill="white" stroke="transparent" stroke-dasharray="5,2" points="1156,-216 965,-216 965,-90 1156,-90 1156,-216"/>
<polygon fill="#fff9c4" stroke="transparent" points="965.5,-195 965.5,-216 1156.5,-216 1156.5,-195 965.5,-195"/>
<polygon fill="none" stroke="#ffb300" points="965.5,-195 965.5,-216 1156.5,-216 1156.5,-195 965.5,-195"/>
<text text-anchor="start" x="1037.5" y="-204" font-family="Arial" font-weight="bold" font-size="10.00">OrderItem</text>
<polygon fill="none" stroke="#ffb300" points="965.5,-174 965.5,-195 1156.5,-195 1156.5,-174 965.5,-174"/>
<text text-anchor="start" x="970.5" y="-182" font-family="Arial" font-size="10.00">🔑🔗 order_id : INTEGER NOT NULL</text>
<polygon fill="none" stroke="#ffb300" points="965.5,-153 965.5,-174 1156.5,-174 1156.5,-153 965.5,-153"/>
<text text-anchor="start" x="970.5" y="-161" font-family="Arial" font-size="10.00">🔑🔗 product_id : INTEGER NOT NULL</text>
<polygon fill="none" stroke="#ffb300" points="965.5,-132 965.5,-153 1156.5,-153 1156.5,-132 965.5,-132"/>
<text text-anchor="start" x="970.5" y="-140" font-family="Arial" font-size="10.00">quantity : INTEGER NOT NULL</text>
<polygon fill="none" stroke="#ffb300" points="965.5,-111 965.5,-132 1156.5,-132 1156.5,-111 965.5,-111"/>
<text text-anchor="start" x="970.5" y="-119" font-family="Arial" font-size="10.00">unit_price : DECIMAL(10,2) NOT NULL</text>
<polygon fill="none" stroke="#ffb300" points="965.5,-90 965.5,-111 1156.5,-111 1156.5,-90 965.5,-90"/>
<text text-anchor="start" x="970.5" y="-98" font-family="Arial" font-size="10.00">subtotal : DECIMAL(10,2) NOT NULL</text>
</g>
<!-- a8e17873&#45;ba17&#45;43b0&#45;9d9f&#45;3a4714e2997d&#45;&gt;31202e25&#45;faa7&#45;4f16&#45;a716&#45;6650fe50846d -->
<g id="edge6" class="edge">
<title>a8e17873&#45;ba17&#45;43b0&#45;9d9f&#45;3a4714e2997d&#45;&gt;31202e25&#45;faa7&#45;4f16&#45;a716&#45;6650fe50846d</title>
<path fill="none" stroke="#43a047" stroke-width="2" d="M832.21,-130C832.21,-130 954.74,-130 954.74,-130"/>
<polygon fill="#43a047" stroke="#43a047" stroke-width="2" points="963.74,-125 963.74,-135 961.74,-135 961.74,-125 963.74,-125"/>
<polyline fill="none" stroke="#43a047" stroke-width="2" points="964.74,-130 959.74,-130 "/>
<polygon fill="#43a047" stroke="#43a047" stroke-width="2" points="837.21,-130 827.21,-125.5 832.21,-130 827.21,-130 827.21,-130 827.21,-130 832.21,-130 827.21,-134.5 837.21,-130 837.21,-130"/>
<text text-anchor="middle" x="896.5" y="-129.8" font-family="Arial" font-size="9.00">IncludedIn</text>
<text text-anchor="middle" x="834.21" y="-122.8" font-family="Arial" font-size="9.00">0..*</text>
<text text-anchor="middle" x="961.74" y="-122.8" font-family="Arial" font-size="9.00">1</text>
</g>
<!-- fbac0569&#45;15ee&#45;4ac4&#45;9a76&#45;454fcb78b62b&#45;&gt;31202e25&#45;faa7&#45;4f16&#45;a716&#45;6650fe50846d -->
<g id="edge5" class="edge">
<title>fbac0569&#45;15ee&#45;4ac4&#45;9a76&#45;454fcb78b62b&#45;&gt;31202e25&#45;faa7&#45;4f16&#45;a716&#45;6650fe50846d</title>
<path fill="none" stroke="#43a047" stroke-width="2" d="M833,-271.39C833,-271.39 833,-170 833,-170 833,-170 954.68,-170 954.68,-170"/>
<polygon fill="#43a047" stroke="#43a047" stroke-width="2" points="838,-275.39 828,-275.39 828,-273.39 838,-273.39 838,-275.39"/>
<polyline fill="none" stroke="#43a047" stroke-width="2" points="833,-276.39 833,-271.39 "/>
<polygon fill="#43a047" stroke="#43a047" stroke-width="2" points="954.68,-170 964.68,-174.5 959.68,-170 964.68,-170 964.68,-170 964.68,-170 959.68,-170 964.68,-165.5 954.68,-170 954.68,-170"/>
<text text-anchor="middle" x="896.5" y="-251.8" font-family="Arial" font-size="9.00">Contains</text>
<text text-anchor="middle" x="957.68" y="-162.8" font-family="Arial" font-size="9.00">1..*</text>
<text text-anchor="middle" x="830" y="-269.19" font-family="Arial" font-size="9.00">1</text>
</g>
<!-- 6272aaa9&#45;cfae&#45;4b28&#45;957f&#45;dba089714963 -->
<g id="node7" class="node">
<title>6272aaa9&#45;cfae&#45;4b28&#45;957f&#45;dba089714963</title>
<polygon fill="white" stroke="transparent" points="1167,-455 954,-455 954,-287 1167,-287 1167,-455"/>
<polygon fill="#ececfc" stroke="transparent" points="954.5,-434 954.5,-455 1167.5,-455 1167.5,-434 954.5,-434"/>
<polygon fill="none" stroke="#333333" points="954.5,-434 954.5,-455 1167.5,-455 1167.5,-434 954.5,-434"/>
<text text-anchor="start" x="1040.5" y="-443" font-family="Arial" font-weight="bold" font-size="10.00">Payment</text>
<polygon fill="none" stroke="#333333" points="954.5,-413 954.5,-434 1167.5,-434 1167.5,-413 954.5,-413"/>
<text text-anchor="start" x="959.5" y="-421" font-family="Arial" font-size="10.00">🔑 payment_id : INTEGER NOT NULL</text>
<polygon fill="none" stroke="#333333" points="954.5,-392 954.5,-413 1167.5,-413 1167.5,-392 954.5,-392"/>
<text text-anchor="start" x="959.5" y="-400" font-family="Arial" font-size="10.00">🔗 order_id : INTEGER NOT NULL</text>
<polygon fill="none" stroke="#333333" points="954.5,-371 954.5,-392 1167.5,-392 1167.5,-371 954.5,-371"/>
<text text-anchor="start" x="959.5" y="-379" font-family="Arial" font-size="10.00">payment_date : TIMESTAMP NOT NULL</text>
<polygon fill="none" stroke="#333333" points="954.5,-350 954.5,-371 1167.5,-371 1167.5,-350 954.5,-350"/>
<text text-anchor="start" x="959.5" y="-358" font-family="Arial" font-size="10.00">payment_method : VARCHAR(50) NOT NULL</text>
<polygon fill="none" stroke="#333333" points="954.5,-329 954.5,-350 1167.5,-350 1167.5,-329 954.5,-329"/>
<text text-anchor="start" x="959.5" y="-337" font-family="Arial" font-size="10.00">amount : DECIMAL(10,2) NOT NULL</text>
<polygon fill="none" stroke="#333333" points="954.5,-308 954.5,-329 1167.5,-329 1167.5,-308 954.5,-308"/>
<text text-anchor="start" x="959.5" y="-316" font-family="Arial" font-size="10.00">status : VARCHAR(20) NOT NULL</text>
<polygon fill="none" stroke="#333333" points="954.5,-287 954.5,-308 1167.5,-308 1167.5,-287 954.5,-287"/>
<text text-anchor="start" x="959.5" y="-295" font-family="Arial" font-size="10.00">transaction_id : VARCHAR(100)</text>
</g>
<!-- fbac0569&#45;15ee&#45;4ac4&#45;9a76&#45;454fcb78b62b&#45;&gt;6272aaa9&#45;cfae&#45;4b28&#45;957f&#45;dba089714963 -->
<g id="edge7" class="edge">
<title>fbac0569&#45;15ee&#45;4ac4&#45;9a76&#45;454fcb78b62b&#45;&gt;6272aaa9&#45;cfae&#45;4b28&#45;957f&#45;dba089714963</title>
<path fill="none" stroke="#43a047" d="M844.05,-371C844.05,-371 943.81,-371 943.81,-371"/>
<polygon fill="#43a047" stroke="#43a047" points="952.81,-366 952.81,-376 950.81,-376 950.81,-366 952.81,-366"/>
<polyline fill="none" stroke="#43a047" points="953.81,-371 948.81,-371 "/>
<polygon fill="#43a047" stroke="#43a047" points="849.05,-371 839.05,-366.5 844.05,-371 839.05,-371 839.05,-371 839.05,-371 844.05,-371 839.05,-375.5 849.05,-371 849.05,-371"/>
<text text-anchor="middle" x="896.5" y="-373.8" font-family="Arial" font-size="9.00">Pays</text>
<text text-anchor="middle" x="846.05" y="-363.8" font-family="Arial" font-size="9.00">0..*</text>
<text text-anchor="middle" x="950.81" y="-363.8" font-family="Arial" font-size="9.00">1</text>
</g>
</g>
</svg>
