<?xml version="1.0" encoding="UTF-8" standalone="no"?>
<!DOCTYPE svg PUBLIC "-//W3C//DTD SVG 1.1//EN"
 "http://www.w3.org/Graphics/SVG/1.1/DTD/svg11.dtd">
<!-- Generated by graphviz version 2.43.0 (0)
 -->
<!-- Title: Python Web Application Pages: 1 -->
<svg width="8792pt" height="2875pt"
 viewBox="0.00 0.00 2110.00 690.00" xmlns="http://www.w3.org/2000/svg" xmlns:xlink="http://www.w3.org/1999/xlink">
<g id="graph0" class="graph" transform="scale(4.17 4.17) rotate(0) translate(4 686)">
<title>Python Web Application</title>
<polygon fill="white" stroke="transparent" points="-4,4 -4,-686 2106,-686 2106,4 -4,4"/>
<g id="clust1" class="cluster">
<title>cluster_cc366fbd&#45;8b84&#45;4431&#45;a25b&#45;32011cc4fffd</title>
<polygon fill="#eceff4" stroke="#8fbcbb" points="8,-542.5 8,-621.5 344,-621.5 344,-542.5 8,-542.5"/>
<text text-anchor="middle" x="176" y="-607.9" font-family="Arial-Bold" font-size="12.00">app</text>
</g>
<g id="clust2" class="cluster">
<title>cluster_a0072a67&#45;9dbb&#45;4306&#45;8141&#45;3abb1e254928</title>
<polygon fill="#eceff4" stroke="#8fbcbb" points="352,-95 352,-674 795,-674 795,-95 352,-95"/>
<text text-anchor="middle" x="573.5" y="-660.4" font-family="Arial-Bold" font-size="12.00">models</text>
</g>
<g id="clust3" class="cluster">
<title>cluster_c353bfae&#45;65b1&#45;4ce4&#45;846b&#45;65e464fdf290</title>
<polygon fill="#eceff4" stroke="#8fbcbb" points="862,-542.5 862,-621.5 1258,-621.5 1258,-542.5 862,-542.5"/>
<text text-anchor="middle" x="1060" y="-607.9" font-family="Arial-Bold" font-size="12.00">routes</text>
</g>
<g id="clust4" class="cluster">
<title>cluster_629d82df&#45;3657&#45;4870&#45;b3c3&#45;4128c3f8da1b</title>
<polygon fill="#eceff4" stroke="#8fbcbb" points="837,-240 837,-424 1187,-424 1187,-240 837,-240"/>
<text text-anchor="middle" x="1012" y="-410.4" font-family="Arial-Bold" font-size="12.00">forms</text>
</g>
<g id="clust5" class="cluster">
<title>cluster_1a36481c&#45;d338&#45;4857&#45;aad4&#45;686e344005b6</title>
<polygon fill="#eceff4" stroke="#8fbcbb" points="1300,-521.5 1300,-642.5 1614,-642.5 1614,-521.5 1300,-521.5"/>
<text text-anchor="middle" x="1457" y="-628.9" font-family="Arial-Bold" font-size="12.00">config</text>
</g>
<!-- 9a746f5a&#45;41c9&#45;4fdb&#45;a504&#45;b3da096263c2 -->
<g id="node1" class="node">
<title>9a746f5a&#45;41c9&#45;4fdb&#45;a504&#45;b3da096263c2</title>
<polygon fill="#e5e9f0" stroke="transparent" points="336,-592.5 142,-592.5 142,-550.5 336,-550.5 336,-592.5"/>
<polygon fill="#a3be8c" stroke="transparent" points="142,-571.5 142,-592.5 336,-592.5 336,-571.5 142,-571.5"/>
<polygon fill="none" stroke="black" points="142,-571.5 142,-592.5 336,-592.5 336,-571.5 142,-571.5"/>
<text text-anchor="start" x="213.5" y="-580.5" font-family="Arial" font-weight="bold" font-size="10.00">create_app</text>
<polygon fill="none" stroke="black" points="142,-550.5 142,-571.5 336,-571.5 336,-550.5 142,-550.5"/>
<text text-anchor="start" x="147" y="-558.5" font-family="Arial" font-size="10.00">+ create_app(config_class: object) : Flask</text>
</g>
<!-- 22b506dc&#45;9776&#45;4b07&#45;a977&#45;ccb10a6be81e -->
<g id="node2" class="node">
<title>22b506dc&#45;9776&#45;4b07&#45;a977&#45;ccb10a6be81e</title>
<polygon fill="#e5e9f0" stroke="transparent" points="84,-592.5 16,-592.5 16,-550.5 84,-550.5 84,-592.5"/>
<polygon fill="#d08770" stroke="transparent" points="16,-571.5 16,-592.5 84,-592.5 84,-571.5 16,-571.5"/>
<polygon fill="none" stroke="black" points="16,-571.5 16,-592.5 84,-592.5 84,-571.5 16,-571.5"/>
<text text-anchor="start" x="41" y="-580.5" font-family="Arial" font-weight="bold" font-size="10.00">app</text>
<polygon fill="none" stroke="black" points="16,-550.5 16,-571.5 84,-571.5 84,-550.5 16,-550.5"/>
<text text-anchor="start" x="21" y="-558.5" font-family="Arial" font-size="10.00">+ app : Flask</text>
</g>
<!-- dd0ced46&#45;4322&#45;4475&#45;a71a&#45;073b545a2a49 -->
<g id="node13" class="node">
<title>dd0ced46&#45;4322&#45;4475&#45;a71a&#45;073b545a2a49</title>
<polygon fill="#e5e9f0" stroke="transparent" points="67.5,-332 32.5,-332 32.5,-311 67.5,-311 67.5,-332"/>
<polygon fill="#88c0d0" stroke="transparent" points="33,-310.5 33,-331.5 68,-331.5 68,-310.5 33,-310.5"/>
<polygon fill="none" stroke="black" points="33,-310.5 33,-331.5 68,-331.5 68,-310.5 33,-310.5"/>
<text text-anchor="start" x="38" y="-319.5" font-family="Arial" font-weight="bold" font-size="10.00">Flask</text>
</g>
<!-- 22b506dc&#45;9776&#45;4b07&#45;a977&#45;ccb10a6be81e&#45;&gt;dd0ced46&#45;4322&#45;4475&#45;a71a&#45;073b545a2a49 -->
<g id="edge8" class="edge">
<title>22b506dc&#45;9776&#45;4b07&#45;a977&#45;ccb10a6be81e&#45;&gt;dd0ced46&#45;4322&#45;4475&#45;a71a&#45;073b545a2a49</title>
<path fill="none" stroke="#bf616a" stroke-dasharray="5,2" d="M50,-550.19C50,-550.19 50,-342.24 50,-342.24"/>
<polygon fill="#bf616a" stroke="#bf616a" points="50,-332.24 54.5,-342.24 50,-337.24 50,-342.24 50,-342.24 50,-342.24 50,-337.24 45.5,-342.24 50,-332.24 50,-332.24"/>
<text text-anchor="middle" x="100" y="-454.8" font-family="Arial" font-size="9.00">Relationship_0d73100d</text>
</g>
<!-- 1bf18be2&#45;7dc4&#45;4a08&#45;acfe&#45;a1ff74007902 -->
<g id="node3" class="node">
<title>1bf18be2&#45;7dc4&#45;4a08&#45;acfe&#45;a1ff74007902</title>
<polygon fill="#e5e9f0" stroke="transparent" points="572.5,-416 359.5,-416 359.5,-227 572.5,-227 572.5,-416"/>
<polygon fill="#88c0d0" stroke="transparent" points="360,-394.5 360,-415.5 573,-415.5 573,-394.5 360,-394.5"/>
<polygon fill="none" stroke="black" points="360,-394.5 360,-415.5 573,-415.5 573,-394.5 360,-394.5"/>
<text text-anchor="start" x="455.5" y="-403.5" font-family="Arial" font-weight="bold" font-size="10.00">User</text>
<polygon fill="#e5e9f0" stroke="transparent" points="360,-373.5 360,-394.5 573,-394.5 573,-373.5 360,-373.5"/>
<polygon fill="none" stroke="black" points="360,-373.5 360,-394.5 573,-394.5 573,-373.5 360,-373.5"/>
<text text-anchor="start" x="445" y="-382.5" font-family="Arial" font-style="italic" font-size="10.00">Attributes</text>
<polygon fill="none" stroke="black" points="360,-352.5 360,-373.5 573,-373.5 573,-352.5 360,-352.5"/>
<text text-anchor="start" x="365" y="-360.5" font-family="Arial" font-size="10.00">+ id : Integer</text>
<polygon fill="none" stroke="black" points="360,-331.5 360,-352.5 573,-352.5 573,-331.5 360,-331.5"/>
<text text-anchor="start" x="365" y="-339.5" font-family="Arial" font-size="10.00">+ username : String(64)</text>
<polygon fill="none" stroke="black" points="360,-310.5 360,-331.5 573,-331.5 573,-310.5 360,-310.5"/>
<text text-anchor="start" x="365" y="-318.5" font-family="Arial" font-size="10.00">+ email : String(120)</text>
<polygon fill="none" stroke="black" points="360,-289.5 360,-310.5 573,-310.5 573,-289.5 360,-289.5"/>
<text text-anchor="start" x="365" y="-297.5" font-family="Arial" font-size="10.00">+ password_hash : String(128)</text>
<polygon fill="#e5e9f0" stroke="transparent" points="360,-268.5 360,-289.5 573,-289.5 573,-268.5 360,-268.5"/>
<polygon fill="none" stroke="black" points="360,-268.5 360,-289.5 573,-289.5 573,-268.5 360,-268.5"/>
<text text-anchor="start" x="447.5" y="-277.5" font-family="Arial" font-style="italic" font-size="10.00">Methods</text>
<polygon fill="none" stroke="black" points="360,-247.5 360,-268.5 573,-268.5 573,-247.5 360,-247.5"/>
<text text-anchor="start" x="365" y="-255.5" font-family="Arial" font-size="10.00">+ set_password(self: , password: str)</text>
<polygon fill="none" stroke="black" points="360,-226.5 360,-247.5 573,-247.5 573,-226.5 360,-226.5"/>
<text text-anchor="start" x="365" y="-234.5" font-family="Arial" font-size="10.00">+ check_password(self: , password: str) : bool</text>
</g>
<!-- 1d4814ad&#45;67af&#45;410a&#45;9e6e&#45;6b98ca5ee100 -->
<g id="node5" class="node">
<title>1d4814ad&#45;67af&#45;410a&#45;9e6e&#45;6b98ca5ee100</title>
<polygon fill="#e5e9f0" stroke="transparent" points="681.5,-145 584.5,-145 584.5,-103 681.5,-103 681.5,-145"/>
<polygon fill="#d08770" stroke="transparent" points="585,-124 585,-145 682,-145 682,-124 585,-124"/>
<polygon fill="none" stroke="black" points="585,-124 585,-145 682,-145 682,-124 585,-124"/>
<text text-anchor="start" x="627" y="-133" font-family="Arial" font-weight="bold" font-size="10.00">db</text>
<polygon fill="none" stroke="black" points="585,-103 585,-124 682,-124 682,-103 585,-103"/>
<text text-anchor="start" x="590" y="-111" font-family="Arial" font-size="10.00">+ db : SQLAlchemy</text>
</g>
<!-- 1bf18be2&#45;7dc4&#45;4a08&#45;acfe&#45;a1ff74007902&#45;&gt;1d4814ad&#45;67af&#45;410a&#45;9e6e&#45;6b98ca5ee100 -->
<g id="edge10" class="edge">
<title>1bf18be2&#45;7dc4&#45;4a08&#45;acfe&#45;a1ff74007902&#45;&gt;1d4814ad&#45;67af&#45;410a&#45;9e6e&#45;6b98ca5ee100</title>
<path fill="none" stroke="#bf616a" stroke-dasharray="5,2" d="M572.8,-237C597.56,-237 616.83,-237 616.83,-237 616.83,-237 616.83,-155.25 616.83,-155.25"/>
<polygon fill="#bf616a" stroke="#bf616a" points="616.83,-145.25 621.33,-155.25 616.83,-150.25 616.83,-155.25 616.83,-155.25 616.83,-155.25 616.83,-150.25 612.33,-155.25 616.83,-145.25 616.83,-145.25"/>
<text text-anchor="middle" x="572" y="-183.8" font-family="Arial" font-size="9.00">Relationship_36d537e0</text>
</g>
<!-- c3218a38&#45;e4be&#45;4dc0&#45;9986&#45;266cd2827d53 -->
<g id="node4" class="node">
<title>c3218a38&#45;e4be&#45;4dc0&#45;9986&#45;266cd2827d53</title>
<polygon fill="#e5e9f0" stroke="transparent" points="691.5,-645 574.5,-645 574.5,-498 691.5,-498 691.5,-645"/>
<polygon fill="#88c0d0" stroke="transparent" points="575,-623.5 575,-644.5 692,-644.5 692,-623.5 575,-623.5"/>
<polygon fill="none" stroke="black" points="575,-623.5 575,-644.5 692,-644.5 692,-623.5 575,-623.5"/>
<text text-anchor="start" x="622.5" y="-632.5" font-family="Arial" font-weight="bold" font-size="10.00">Post</text>
<polygon fill="#e5e9f0" stroke="transparent" points="575,-602.5 575,-623.5 692,-623.5 692,-602.5 575,-602.5"/>
<polygon fill="none" stroke="black" points="575,-602.5 575,-623.5 692,-623.5 692,-602.5 575,-602.5"/>
<text text-anchor="start" x="612" y="-611.5" font-family="Arial" font-style="italic" font-size="10.00">Attributes</text>
<polygon fill="none" stroke="black" points="575,-581.5 575,-602.5 692,-602.5 692,-581.5 575,-581.5"/>
<text text-anchor="start" x="580" y="-589.5" font-family="Arial" font-size="10.00">+ id : Integer</text>
<polygon fill="none" stroke="black" points="575,-560.5 575,-581.5 692,-581.5 692,-560.5 575,-560.5"/>
<text text-anchor="start" x="580" y="-568.5" font-family="Arial" font-size="10.00">+ title : String(100)</text>
<polygon fill="none" stroke="black" points="575,-539.5 575,-560.5 692,-560.5 692,-539.5 575,-539.5"/>
<text text-anchor="start" x="580" y="-547.5" font-family="Arial" font-size="10.00">+ content : Text</text>
<polygon fill="none" stroke="black" points="575,-518.5 575,-539.5 692,-539.5 692,-518.5 575,-518.5"/>
<text text-anchor="start" x="580" y="-526.5" font-family="Arial" font-size="10.00">+ timestamp : DateTime</text>
<polygon fill="none" stroke="black" points="575,-497.5 575,-518.5 692,-518.5 692,-497.5 575,-497.5"/>
<text text-anchor="start" x="580" y="-505.5" font-family="Arial" font-size="10.00">+ user_id : Integer</text>
</g>
<!-- c3218a38&#45;e4be&#45;4dc0&#45;9986&#45;266cd2827d53&#45;&gt;1bf18be2&#45;7dc4&#45;4a08&#45;acfe&#45;a1ff74007902 -->
<g id="edge12" class="edge">
<title>c3218a38&#45;e4be&#45;4dc0&#45;9986&#45;266cd2827d53&#45;&gt;1bf18be2&#45;7dc4&#45;4a08&#45;acfe&#45;a1ff74007902</title>
<path fill="none" stroke="#bf616a" stroke-dasharray="5,2" d="M579.5,-497.99C579.5,-453.38 579.5,-405 579.5,-405 579.5,-405 578.82,-405 578.82,-405"/>
<polygon fill="#bf616a" stroke="#bf616a" points="572.74,-405 582.74,-400.5 577.74,-405 582.74,-405 582.74,-405 582.74,-405 577.74,-405 582.74,-409.5 572.74,-405 572.74,-405"/>
<text text-anchor="middle" x="543.5" y="-454.8" font-family="Arial" font-size="9.00">belongs to</text>
</g>
<!-- c3218a38&#45;e4be&#45;4dc0&#45;9986&#45;266cd2827d53&#45;&gt;1d4814ad&#45;67af&#45;410a&#45;9e6e&#45;6b98ca5ee100 -->
<g id="edge11" class="edge">
<title>c3218a38&#45;e4be&#45;4dc0&#45;9986&#45;266cd2827d53&#45;&gt;1d4814ad&#45;67af&#45;410a&#45;9e6e&#45;6b98ca5ee100</title>
<path fill="none" stroke="#bf616a" stroke-dasharray="5,2" d="M649.17,-497.6C649.17,-497.6 649.17,-155.31 649.17,-155.31"/>
<polygon fill="#bf616a" stroke="#bf616a" points="649.17,-145.31 653.67,-155.31 649.17,-150.31 649.17,-155.31 649.17,-155.31 649.17,-155.31 649.17,-150.31 644.67,-155.31 649.17,-145.31 649.17,-145.31"/>
<text text-anchor="middle" x="738" y="-319.3" font-family="Arial" font-size="9.00">Relationship_11dc0951</text>
</g>
<!-- 5d1267a8&#45;9401&#45;4b82&#45;b7e1&#45;4fa9bdca8be4 -->
<g id="node14" class="node">
<title>5d1267a8&#45;9401&#45;4b82&#45;b7e1&#45;4fa9bdca8be4</title>
<polygon fill="#e5e9f0" stroke="transparent" points="669,-21 597,-21 597,0 669,0 669,-21"/>
<polygon fill="#88c0d0" stroke="transparent" points="597,0.5 597,-20.5 669,-20.5 669,0.5 597,0.5"/>
<polygon fill="none" stroke="black" points="597,0.5 597,-20.5 669,-20.5 669,0.5 597,0.5"/>
<text text-anchor="start" x="602" y="-8.5" font-family="Arial" font-weight="bold" font-size="10.00">SQLAlchemy</text>
</g>
<!-- 1d4814ad&#45;67af&#45;410a&#45;9e6e&#45;6b98ca5ee100&#45;&gt;5d1267a8&#45;9401&#45;4b82&#45;b7e1&#45;4fa9bdca8be4 -->
<g id="edge9" class="edge">
<title>1d4814ad&#45;67af&#45;410a&#45;9e6e&#45;6b98ca5ee100&#45;&gt;5d1267a8&#45;9401&#45;4b82&#45;b7e1&#45;4fa9bdca8be4</title>
<path fill="none" stroke="#bf616a" stroke-dasharray="5,2" d="M633,-102.92C633,-102.92 633,-31.2 633,-31.2"/>
<polygon fill="#bf616a" stroke="#bf616a" points="633,-21.2 637.5,-31.2 633,-26.2 633,-31.2 633,-31.2 633,-31.2 633,-26.2 628.5,-31.2 633,-21.2 633,-21.2"/>
<text text-anchor="middle" x="682" y="-59.8" font-family="Arial" font-size="9.00">Relationship_bdc364c9</text>
</g>
<!-- 5b7f64d7&#45;d85d&#45;4109&#45;89be&#45;811effba36cb -->
<g id="node6" class="node">
<title>5b7f64d7&#45;d85d&#45;4109&#45;89be&#45;811effba36cb</title>
<polygon fill="#e5e9f0" stroke="transparent" points="1249.5,-592.5 1200.5,-592.5 1200.5,-550.5 1249.5,-550.5 1249.5,-592.5"/>
<polygon fill="#a3be8c" stroke="transparent" points="1201,-571.5 1201,-592.5 1250,-592.5 1250,-571.5 1201,-571.5"/>
<polygon fill="none" stroke="black" points="1201,-571.5 1201,-592.5 1250,-592.5 1250,-571.5 1201,-571.5"/>
<text text-anchor="start" x="1212.5" y="-580.5" font-family="Arial" font-weight="bold" font-size="10.00">index</text>
<polygon fill="none" stroke="black" points="1201,-550.5 1201,-571.5 1250,-571.5 1250,-550.5 1201,-550.5"/>
<text text-anchor="start" x="1206" y="-558.5" font-family="Arial" font-size="10.00">+ index()</text>
</g>
<!-- 14a0e05d&#45;5cb2&#45;4c02&#45;a0bb&#45;3a2d96fa8036 -->
<g id="node7" class="node">
<title>14a0e05d&#45;5cb2&#45;4c02&#45;a0bb&#45;3a2d96fa8036</title>
<polygon fill="#e5e9f0" stroke="transparent" points="916,-592.5 870,-592.5 870,-550.5 916,-550.5 916,-592.5"/>
<polygon fill="#a3be8c" stroke="transparent" points="870,-571.5 870,-592.5 916,-592.5 916,-571.5 870,-571.5"/>
<polygon fill="none" stroke="black" points="870,-571.5 870,-592.5 916,-592.5 916,-571.5 870,-571.5"/>
<text text-anchor="start" x="880.5" y="-580.5" font-family="Arial" font-weight="bold" font-size="10.00">login</text>
<polygon fill="none" stroke="black" points="870,-550.5 870,-571.5 916,-571.5 916,-550.5 870,-550.5"/>
<text text-anchor="start" x="875" y="-558.5" font-family="Arial" font-size="10.00">+ login()</text>
</g>
<!-- 70a93f19&#45;01b0&#45;4f3a&#45;811f&#45;afcf2286186d -->
<g id="node10" class="node">
<title>70a93f19&#45;01b0&#45;4f3a&#45;811f&#45;afcf2286186d</title>
<polygon fill="#e5e9f0" stroke="transparent" points="980.5,-374 845.5,-374 845.5,-269 980.5,-269 980.5,-374"/>
<polygon fill="#88c0d0" stroke="transparent" points="846,-352.5 846,-373.5 981,-373.5 981,-352.5 846,-352.5"/>
<polygon fill="none" stroke="black" points="846,-352.5 846,-373.5 981,-373.5 981,-352.5 846,-352.5"/>
<text text-anchor="start" x="887.5" y="-361.5" font-family="Arial" font-weight="bold" font-size="10.00">LoginForm</text>
<polygon fill="#e5e9f0" stroke="transparent" points="846,-331.5 846,-352.5 981,-352.5 981,-331.5 846,-331.5"/>
<polygon fill="none" stroke="black" points="846,-331.5 846,-352.5 981,-352.5 981,-331.5 846,-331.5"/>
<text text-anchor="start" x="892" y="-340.5" font-family="Arial" font-style="italic" font-size="10.00">Attributes</text>
<polygon fill="none" stroke="black" points="846,-310.5 846,-331.5 981,-331.5 981,-310.5 846,-310.5"/>
<text text-anchor="start" x="851" y="-318.5" font-family="Arial" font-size="10.00">+ username : StringField</text>
<polygon fill="none" stroke="black" points="846,-289.5 846,-310.5 981,-310.5 981,-289.5 846,-289.5"/>
<text text-anchor="start" x="851" y="-297.5" font-family="Arial" font-size="10.00">+ password : PasswordField</text>
<polygon fill="none" stroke="black" points="846,-268.5 846,-289.5 981,-289.5 981,-268.5 846,-268.5"/>
<text text-anchor="start" x="851" y="-276.5" font-family="Arial" font-size="10.00">+ submit : SubmitField</text>
</g>
<!-- 14a0e05d&#45;5cb2&#45;4c02&#45;a0bb&#45;3a2d96fa8036&#45;&gt;70a93f19&#45;01b0&#45;4f3a&#45;811f&#45;afcf2286186d -->
<g id="edge13" class="edge">
<title>14a0e05d&#45;5cb2&#45;4c02&#45;a0bb&#45;3a2d96fa8036&#45;&gt;70a93f19&#45;01b0&#45;4f3a&#45;811f&#45;afcf2286186d</title>
<path fill="none" stroke="#bf616a" stroke-dasharray="5,2" d="M893,-550.19C893,-550.19 893,-384.12 893,-384.12"/>
<polygon fill="#bf616a" stroke="#bf616a" points="893,-374.12 897.5,-384.12 893,-379.12 893,-384.12 893,-384.12 893,-384.12 893,-379.12 888.5,-384.12 893,-374.12 893,-374.12"/>
<text text-anchor="middle" x="952.5" y="-454.8" font-family="Arial" font-size="9.00">Relationship_21ece286</text>
</g>
<!-- 751a74c2&#45;5c60&#45;48b1&#45;a734&#45;7c6d1aa50d8a -->
<g id="node8" class="node">
<title>751a74c2&#45;5c60&#45;48b1&#45;a734&#45;7c6d1aa50d8a</title>
<polygon fill="#e5e9f0" stroke="transparent" points="1026,-592.5 974,-592.5 974,-550.5 1026,-550.5 1026,-592.5"/>
<polygon fill="#a3be8c" stroke="transparent" points="974,-571.5 974,-592.5 1026,-592.5 1026,-571.5 974,-571.5"/>
<polygon fill="none" stroke="black" points="974,-571.5 974,-592.5 1026,-592.5 1026,-571.5 974,-571.5"/>
<text text-anchor="start" x="984.5" y="-580.5" font-family="Arial" font-weight="bold" font-size="10.00">logout</text>
<polygon fill="none" stroke="black" points="974,-550.5 974,-571.5 1026,-571.5 1026,-550.5 974,-550.5"/>
<text text-anchor="start" x="979" y="-558.5" font-family="Arial" font-size="10.00">+ logout()</text>
</g>
<!-- 9b800c21&#45;a5ff&#45;4c39&#45;ae25&#45;4afc62459e15 -->
<g id="node9" class="node">
<title>9b800c21&#45;a5ff&#45;4c39&#45;ae25&#45;4afc62459e15</title>
<polygon fill="#e5e9f0" stroke="transparent" points="1142,-592.5 1084,-592.5 1084,-550.5 1142,-550.5 1142,-592.5"/>
<polygon fill="#a3be8c" stroke="transparent" points="1084,-571.5 1084,-592.5 1142,-592.5 1142,-571.5 1084,-571.5"/>
<polygon fill="none" stroke="black" points="1084,-571.5 1084,-592.5 1142,-592.5 1142,-571.5 1084,-571.5"/>
<text text-anchor="start" x="1095" y="-580.5" font-family="Arial" font-weight="bold" font-size="10.00">register</text>
<polygon fill="none" stroke="black" points="1084,-550.5 1084,-571.5 1142,-571.5 1142,-550.5 1084,-550.5"/>
<text text-anchor="start" x="1089" y="-558.5" font-family="Arial" font-size="10.00">+ register()</text>
</g>
<!-- 815525d8&#45;10cd&#45;4368&#45;bdd3&#45;58b8fe2f7c7d -->
<g id="node11" class="node">
<title>815525d8&#45;10cd&#45;4368&#45;bdd3&#45;58b8fe2f7c7d</title>
<polygon fill="#e5e9f0" stroke="transparent" points="1179,-395 1039,-395 1039,-248 1179,-248 1179,-395"/>
<polygon fill="#88c0d0" stroke="transparent" points="1039,-373.5 1039,-394.5 1179,-394.5 1179,-373.5 1039,-373.5"/>
<polygon fill="none" stroke="black" points="1039,-373.5 1039,-394.5 1179,-394.5 1179,-373.5 1039,-373.5"/>
<text text-anchor="start" x="1068" y="-382.5" font-family="Arial" font-weight="bold" font-size="10.00">RegistrationForm</text>
<polygon fill="#e5e9f0" stroke="transparent" points="1039,-352.5 1039,-373.5 1179,-373.5 1179,-352.5 1039,-352.5"/>
<polygon fill="none" stroke="black" points="1039,-352.5 1039,-373.5 1179,-373.5 1179,-352.5 1039,-352.5"/>
<text text-anchor="start" x="1087.5" y="-361.5" font-family="Arial" font-style="italic" font-size="10.00">Attributes</text>
<polygon fill="none" stroke="black" points="1039,-331.5 1039,-352.5 1179,-352.5 1179,-331.5 1039,-331.5"/>
<text text-anchor="start" x="1044" y="-339.5" font-family="Arial" font-size="10.00">+ username : StringField</text>
<polygon fill="none" stroke="black" points="1039,-310.5 1039,-331.5 1179,-331.5 1179,-310.5 1039,-310.5"/>
<text text-anchor="start" x="1044" y="-318.5" font-family="Arial" font-size="10.00">+ email : EmailField</text>
<polygon fill="none" stroke="black" points="1039,-289.5 1039,-310.5 1179,-310.5 1179,-289.5 1039,-289.5"/>
<text text-anchor="start" x="1044" y="-297.5" font-family="Arial" font-size="10.00">+ password : PasswordField</text>
<polygon fill="none" stroke="black" points="1039,-268.5 1039,-289.5 1179,-289.5 1179,-268.5 1039,-268.5"/>
<text text-anchor="start" x="1044" y="-276.5" font-family="Arial" font-size="10.00">+ password2 : PasswordField</text>
<polygon fill="none" stroke="black" points="1039,-247.5 1039,-268.5 1179,-268.5 1179,-247.5 1039,-247.5"/>
<text text-anchor="start" x="1044" y="-255.5" font-family="Arial" font-size="10.00">+ submit : SubmitField</text>
</g>
<!-- 9b800c21&#45;a5ff&#45;4c39&#45;ae25&#45;4afc62459e15&#45;&gt;815525d8&#45;10cd&#45;4368&#45;bdd3&#45;58b8fe2f7c7d -->
<g id="edge14" class="edge">
<title>9b800c21&#45;a5ff&#45;4c39&#45;ae25&#45;4afc62459e15&#45;&gt;815525d8&#45;10cd&#45;4368&#45;bdd3&#45;58b8fe2f7c7d</title>
<path fill="none" stroke="#bf616a" stroke-dasharray="5,2" d="M1113,-550.19C1113,-550.19 1113,-405.26 1113,-405.26"/>
<polygon fill="#bf616a" stroke="#bf616a" points="1113,-395.26 1117.5,-405.26 1113,-400.26 1113,-405.26 1113,-405.26 1113,-405.26 1113,-400.26 1108.5,-405.26 1113,-395.26 1113,-395.26"/>
<text text-anchor="middle" x="1158" y="-454.8" font-family="Arial" font-size="9.00">Relationship_63b1fc7b</text>
</g>
<!-- 9af56797&#45;25ad&#45;42fc&#45;bb9d&#45;6a724238f704 -->
<g id="node12" class="node">
<title>9af56797&#45;25ad&#45;42fc&#45;bb9d&#45;6a724238f704</title>
<polygon fill="#e5e9f0" stroke="transparent" points="1605.5,-613.5 1308.5,-613.5 1308.5,-529.5 1605.5,-529.5 1605.5,-613.5"/>
<polygon fill="#88c0d0" stroke="transparent" points="1309,-592.5 1309,-613.5 1606,-613.5 1606,-592.5 1309,-592.5"/>
<polygon fill="none" stroke="black" points="1309,-592.5 1309,-613.5 1606,-613.5 1606,-592.5 1309,-592.5"/>
<text text-anchor="start" x="1441.5" y="-601.5" font-family="Arial" font-weight="bold" font-size="10.00">Config</text>
<polygon fill="#e5e9f0" stroke="transparent" points="1309,-571.5 1309,-592.5 1606,-592.5 1606,-571.5 1309,-571.5"/>
<polygon fill="none" stroke="black" points="1309,-571.5 1309,-592.5 1606,-592.5 1606,-571.5 1309,-571.5"/>
<text text-anchor="start" x="1436" y="-580.5" font-family="Arial" font-style="italic" font-size="10.00">Attributes</text>
<polygon fill="none" stroke="black" points="1309,-550.5 1309,-571.5 1606,-571.5 1606,-550.5 1309,-550.5"/>
<text text-anchor="start" x="1314" y="-558.5" font-family="Arial" font-size="10.00">+ const SECRET_KEY : str = &#39;your&#45;secret&#45;key&#39;</text>
<polygon fill="none" stroke="black" points="1309,-529.5 1309,-550.5 1606,-550.5 1606,-529.5 1309,-529.5"/>
<text text-anchor="start" x="1314" y="-537.5" font-family="Arial" font-size="10.00">+ const SQLALCHEMY_DATABASE_URI : str = &#39;sqlite:///app.db&#39;</text>
</g>
<!-- cc366fbd&#45;8b84&#45;4431&#45;a25b&#45;32011cc4fffd -->
<g id="node15" class="node">
<title>cc366fbd&#45;8b84&#45;4431&#45;a25b&#45;32011cc4fffd</title>
<text text-anchor="middle" x="1749" y="-569" font-family="Arial" font-size="10.00">cc366fbd&#45;8b84&#45;4431&#45;a25b&#45;32011cc4fffd</text>
</g>
<!-- 1a36481c&#45;d338&#45;4857&#45;aad4&#45;686e344005b6 -->
<g id="node16" class="node">
<title>1a36481c&#45;d338&#45;4857&#45;aad4&#45;686e344005b6</title>
<text text-anchor="middle" x="1328" y="-319" font-family="Arial" font-size="10.00">1a36481c&#45;d338&#45;4857&#45;aad4&#45;686e344005b6</text>
</g>
<!-- cc366fbd&#45;8b84&#45;4431&#45;a25b&#45;32011cc4fffd&#45;&gt;1a36481c&#45;d338&#45;4857&#45;aad4&#45;686e344005b6 -->
<g id="edge1" class="edge">
<title>cc366fbd&#45;8b84&#45;4431&#45;a25b&#45;32011cc4fffd&#45;&gt;1a36481c&#45;d338&#45;4857&#45;aad4&#45;686e344005b6</title>
<path fill="none" stroke="#4c566a" stroke-dasharray="5,2" d="M1664.28,-571C1645.98,-571 1632,-571 1632,-571 1632,-571 1632,-324 1632,-324 1632,-324 1428.8,-324 1428.8,-324"/>
<polygon fill="#4c566a" stroke="#4c566a" points="1418.8,-324 1428.8,-319.5 1423.8,-324 1428.8,-324 1428.8,-324 1428.8,-324 1423.8,-324 1428.8,-328.5 1418.8,-324 1418.8,-324"/>
<text text-anchor="middle" x="1378" y="-454.8" font-family="Arial" font-size="9.00">Relationship_30b22927</text>
</g>
<!-- a0072a67&#45;9dbb&#45;4306&#45;8141&#45;3abb1e254928 -->
<g id="node17" class="node">
<title>a0072a67&#45;9dbb&#45;4306&#45;8141&#45;3abb1e254928</title>
<text text-anchor="middle" x="1749" y="-121.5" font-family="Arial" font-size="10.00">a0072a67&#45;9dbb&#45;4306&#45;8141&#45;3abb1e254928</text>
</g>
<!-- cc366fbd&#45;8b84&#45;4431&#45;a25b&#45;32011cc4fffd&#45;&gt;a0072a67&#45;9dbb&#45;4306&#45;8141&#45;3abb1e254928 -->
<g id="edge2" class="edge">
<title>cc366fbd&#45;8b84&#45;4431&#45;a25b&#45;32011cc4fffd&#45;&gt;a0072a67&#45;9dbb&#45;4306&#45;8141&#45;3abb1e254928</title>
<path fill="none" stroke="#4c566a" stroke-dasharray="5,2" d="M1692.67,-565.84C1692.67,-565.84 1692.67,-139.53 1692.67,-139.53"/>
<polygon fill="#4c566a" stroke="#4c566a" points="1692.67,-129.53 1697.17,-139.53 1692.67,-134.53 1692.67,-139.53 1692.67,-139.53 1692.67,-139.53 1692.67,-134.53 1688.17,-139.53 1692.67,-129.53 1692.67,-129.53"/>
<text text-anchor="middle" x="1584" y="-319.3" font-family="Arial" font-size="9.00">Relationship_7cc9d2b9</text>
</g>
<!-- c353bfae&#45;65b1&#45;4ce4&#45;846b&#45;65e464fdf290 -->
<g id="node18" class="node">
<title>c353bfae&#45;65b1&#45;4ce4&#45;846b&#45;65e464fdf290</title>
<text text-anchor="middle" x="1999" y="-319" font-family="Arial" font-size="10.00">c353bfae&#45;65b1&#45;4ce4&#45;846b&#45;65e464fdf290</text>
</g>
<!-- cc366fbd&#45;8b84&#45;4431&#45;a25b&#45;32011cc4fffd&#45;&gt;c353bfae&#45;65b1&#45;4ce4&#45;846b&#45;65e464fdf290 -->
<g id="edge3" class="edge">
<title>cc366fbd&#45;8b84&#45;4431&#45;a25b&#45;32011cc4fffd&#45;&gt;c353bfae&#45;65b1&#45;4ce4&#45;846b&#45;65e464fdf290</title>
<path fill="none" stroke="#4c566a" stroke-dasharray="5,2" d="M1777.17,-565.82C1777.17,-528.68 1777.17,-322 1777.17,-322 1777.17,-322 1901.96,-322 1901.96,-322"/>
<polygon fill="#4c566a" stroke="#4c566a" points="1911.96,-322 1901.96,-326.5 1906.96,-322 1901.96,-322 1901.96,-322 1901.96,-322 1906.96,-322 1901.96,-317.5 1911.96,-322 1911.96,-322"/>
<text text-anchor="middle" x="1891" y="-454.8" font-family="Arial" font-size="9.00">Relationship_54c16ced</text>
</g>
<!-- a0072a67&#45;9dbb&#45;4306&#45;8141&#45;3abb1e254928&#45;&gt;cc366fbd&#45;8b84&#45;4431&#45;a25b&#45;32011cc4fffd -->
<g id="edge4" class="edge">
<title>a0072a67&#45;9dbb&#45;4306&#45;8141&#45;3abb1e254928&#45;&gt;cc366fbd&#45;8b84&#45;4431&#45;a25b&#45;32011cc4fffd</title>
<path fill="none" stroke="#4c566a" stroke-dasharray="5,2" d="M1720.83,-129.66C1720.83,-129.66 1720.83,-555.97 1720.83,-555.97"/>
<polygon fill="#4c566a" stroke="#4c566a" points="1720.83,-565.97 1716.33,-555.97 1720.83,-560.97 1720.83,-555.97 1720.83,-555.97 1720.83,-555.97 1720.83,-560.97 1725.33,-555.97 1720.83,-565.97 1720.83,-565.97"/>
<text text-anchor="middle" x="1799" y="-319.3" font-family="Arial" font-size="9.00">Relationship_006d2916</text>
</g>
<!-- c353bfae&#45;65b1&#45;4ce4&#45;846b&#45;65e464fdf290&#45;&gt;cc366fbd&#45;8b84&#45;4431&#45;a25b&#45;32011cc4fffd -->
<g id="edge5" class="edge">
<title>c353bfae&#45;65b1&#45;4ce4&#45;846b&#45;65e464fdf290&#45;&gt;cc366fbd&#45;8b84&#45;4431&#45;a25b&#45;32011cc4fffd</title>
<path fill="none" stroke="#4c566a" stroke-dasharray="5,2" d="M1911.91,-320C1839.76,-320 1749,-320 1749,-320 1749,-320 1749,-555.77 1749,-555.77"/>
<polygon fill="#4c566a" stroke="#4c566a" points="1749,-565.77 1744.5,-555.77 1749,-560.77 1749,-555.77 1749,-555.77 1749,-555.77 1749,-560.77 1753.5,-555.77 1749,-565.77 1749,-565.77"/>
<text text-anchor="middle" x="2051.5" y="-454.8" font-family="Arial" font-size="9.00">Relationship_232855f5</text>
</g>
<!-- c353bfae&#45;65b1&#45;4ce4&#45;846b&#45;65e464fdf290&#45;&gt;a0072a67&#45;9dbb&#45;4306&#45;8141&#45;3abb1e254928 -->
<g id="edge6" class="edge">
<title>c353bfae&#45;65b1&#45;4ce4&#45;846b&#45;65e464fdf290&#45;&gt;a0072a67&#45;9dbb&#45;4306&#45;8141&#45;3abb1e254928</title>
<path fill="none" stroke="#4c566a" stroke-dasharray="5,2" d="M1911.8,-318C1860.39,-318 1805.33,-318 1805.33,-318 1805.33,-318 1805.33,-139.6 1805.33,-139.6"/>
<polygon fill="#4c566a" stroke="#4c566a" points="1805.33,-129.6 1809.83,-139.6 1805.33,-134.6 1805.33,-139.6 1805.33,-139.6 1805.33,-139.6 1805.33,-134.6 1800.83,-139.6 1805.33,-129.6 1805.33,-129.6"/>
<text text-anchor="middle" x="1892" y="-183.8" font-family="Arial" font-size="9.00">Relationship_4434a417</text>
</g>
<!-- 629d82df&#45;3657&#45;4870&#45;b3c3&#45;4128c3f8da1b -->
<g id="node19" class="node">
<title>629d82df&#45;3657&#45;4870&#45;b3c3&#45;4128c3f8da1b</title>
<text text-anchor="middle" x="2005" y="-121.5" font-family="Arial" font-size="10.00">629d82df&#45;3657&#45;4870&#45;b3c3&#45;4128c3f8da1b</text>
</g>
<!-- c353bfae&#45;65b1&#45;4ce4&#45;846b&#45;65e464fdf290&#45;&gt;629d82df&#45;3657&#45;4870&#45;b3c3&#45;4128c3f8da1b -->
<g id="edge7" class="edge">
<title>c353bfae&#45;65b1&#45;4ce4&#45;846b&#45;65e464fdf290&#45;&gt;629d82df&#45;3657&#45;4870&#45;b3c3&#45;4128c3f8da1b</title>
<path fill="none" stroke="#4c566a" stroke-dasharray="5,2" d="M2001.5,-315.8C2001.5,-315.8 2001.5,-139.72 2001.5,-139.72"/>
<polygon fill="#4c566a" stroke="#4c566a" points="2001.5,-129.72 2006,-139.72 2001.5,-134.72 2001.5,-139.72 2001.5,-139.72 2001.5,-139.72 2001.5,-134.72 1997,-139.72 2001.5,-129.72 2001.5,-129.72"/>
<text text-anchor="middle" x="2053.5" y="-183.8" font-family="Arial" font-size="9.00">Relationship_86f2e8e3</text>
</g>
</g>
</svg>
