<?xml version="1.0" encoding="utf-8" ?>
<svg baseProfile="full" height="1000px" version="1.1" width="1200px" xmlns="http://www.w3.org/2000/svg" xmlns:ev="http://www.w3.org/2001/xml-events" xmlns:xlink="http://www.w3.org/1999/xlink"><defs><marker id="arrow" markerHeight="10" markerWidth="10" orient="auto" refX="10" refY="5"><path d="M0,0 L10,5 L0,10 L3,5 Z" fill="#000000" /></marker></defs><g id="nodes"><rect fill="#E8F0FF" height="150" stroke="#2F4F4F" stroke-width="2" width="200" x="50" y="50" /><polygon fill="#E8F0FF" points="50,50 70,30 270,30 250,50" stroke="#2F4F4F" stroke-width="2" /><polygon fill="#E8F0FF" points="250,50 270,30 270,180 250,200" stroke="#2F4F4F" stroke-width="2" /><text fill="#696969" font-family="Arial, sans-serif" font-style="italic" text-anchor="middle" x="150.0" y="75">«device»</text><text fill="#000000" font-family="Arial, sans-serif" font-weight="bold" text-anchor="middle" x="150.0" y="95">Load Balancer</text><text fill="#000000" font-family="Arial, sans-serif" font-style="italic" text-anchor="middle" x="150.0" y="115">(device)</text><rect fill="#F8F8FF" height="60" stroke="#696969" stroke-width="1.5" width="120" x="90.0" y="135" /><path d="M 195.0 135 L 210.0 150 L 210.0 135 Z" fill="#F8F8FF" stroke="#696969" stroke-width="1.5" /><path d="M 195.0 135 L 195.0 150 L 210.0 150" fill="none" stroke="#696969" stroke-width="1.5" /><text fill="#696969" font-family="Arial, sans-serif" font-style="italic" text-anchor="middle" x="150.0" y="155">«executable»</text><text fill="#000000" font-family="Arial, sans-serif" font-weight="bold" text-anchor="middle" x="150.0" y="175">NGINX</text><rect fill="#E8F0FF" height="150" stroke="#2F4F4F" stroke-width="2" width="200" x="300" y="50" /><polygon fill="#E8F0FF" points="300,50 320,30 520,30 500,50" stroke="#2F4F4F" stroke-width="2" /><polygon fill="#E8F0FF" points="500,50 520,30 520,180 500,200" stroke="#2F4F4F" stroke-width="2" /><text fill="#696969" font-family="Arial, sans-serif" font-style="italic" text-anchor="middle" x="400.0" y="75">«device»</text><text fill="#000000" font-family="Arial, sans-serif" font-weight="bold" text-anchor="middle" x="400.0" y="95">Web Server 1</text><text fill="#000000" font-family="Arial, sans-serif" font-style="italic" text-anchor="middle" x="400.0" y="115">(device)</text><rect fill="#F8F8FF" height="60" stroke="#696969" stroke-width="1.5" width="120" x="340.0" y="135" /><path d="M 445.0 135 L 460.0 150 L 460.0 135 Z" fill="#F8F8FF" stroke="#696969" stroke-width="1.5" /><path d="M 445.0 135 L 445.0 150 L 460.0 150" fill="none" stroke="#696969" stroke-width="1.5" /><text fill="#696969" font-family="Arial, sans-serif" font-style="italic" text-anchor="middle" x="400.0" y="155">«container»</text><text fill="#000000" font-family="Arial, sans-serif" font-weight="bold" text-anchor="middle" x="400.0" y="175">Web Container</text><rect fill="#F8F8FF" height="60" stroke="#696969" stroke-width="1.5" width="120" x="340.0" y="205" /><path d="M 445.0 205 L 460.0 220 L 460.0 205 Z" fill="#F8F8FF" stroke="#696969" stroke-width="1.5" /><path d="M 445.0 205 L 445.0 220 L 460.0 220" fill="none" stroke="#696969" stroke-width="1.5" /><text fill="#696969" font-family="Arial, sans-serif" font-style="italic" text-anchor="middle" x="400.0" y="225">«artifact»</text><text fill="#000000" font-family="Arial, sans-serif" font-weight="bold" text-anchor="middle" x="400.0" y="245">Static Files</text><rect fill="#E8F0FF" height="150" stroke="#2F4F4F" stroke-width="2" width="200" x="550" y="50" /><polygon fill="#E8F0FF" points="550,50 570,30 770,30 750,50" stroke="#2F4F4F" stroke-width="2" /><polygon fill="#E8F0FF" points="750,50 770,30 770,180 750,200" stroke="#2F4F4F" stroke-width="2" /><text fill="#696969" font-family="Arial, sans-serif" font-style="italic" text-anchor="middle" x="650.0" y="75">«device»</text><text fill="#000000" font-family="Arial, sans-serif" font-weight="bold" text-anchor="middle" x="650.0" y="95">Web Server 2</text><text fill="#000000" font-family="Arial, sans-serif" font-style="italic" text-anchor="middle" x="650.0" y="115">(device)</text><rect fill="#F8F8FF" height="60" stroke="#696969" stroke-width="1.5" width="120" x="590.0" y="135" /><path d="M 695.0 135 L 710.0 150 L 710.0 135 Z" fill="#F8F8FF" stroke="#696969" stroke-width="1.5" /><path d="M 695.0 135 L 695.0 150 L 710.0 150" fill="none" stroke="#696969" stroke-width="1.5" /><text fill="#696969" font-family="Arial, sans-serif" font-style="italic" text-anchor="middle" x="650.0" y="155">«container»</text><text fill="#000000" font-family="Arial, sans-serif" font-weight="bold" text-anchor="middle" x="650.0" y="175">Web Container</text><rect fill="#F8F8FF" height="60" stroke="#696969" stroke-width="1.5" width="120" x="590.0" y="205" /><path d="M 695.0 205 L 710.0 220 L 710.0 205 Z" fill="#F8F8FF" stroke="#696969" stroke-width="1.5" /><path d="M 695.0 205 L 695.0 220 L 710.0 220" fill="none" stroke="#696969" stroke-width="1.5" /><text fill="#696969" font-family="Arial, sans-serif" font-style="italic" text-anchor="middle" x="650.0" y="225">«artifact»</text><text fill="#000000" font-family="Arial, sans-serif" font-weight="bold" text-anchor="middle" x="650.0" y="245">Static Files</text><rect fill="#E8F0FF" height="150" stroke="#2F4F4F" stroke-width="2" width="200" x="50" y="250" /><polygon fill="#E8F0FF" points="50,250 70,230 270,230 250,250" stroke="#2F4F4F" stroke-width="2" /><polygon fill="#E8F0FF" points="250,250 270,230 270,380 250,400" stroke="#2F4F4F" stroke-width="2" /><text fill="#696969" font-family="Arial, sans-serif" font-style="italic" text-anchor="middle" x="150.0" y="275">«device»</text><text fill="#000000" font-family="Arial, sans-serif" font-weight="bold" text-anchor="middle" x="150.0" y="295">Application Server</text><text fill="#000000" font-family="Arial, sans-serif" font-style="italic" text-anchor="middle" x="150.0" y="315">(device)</text><rect fill="#F8F8FF" height="60" stroke="#696969" stroke-width="1.5" width="120" x="90.0" y="335" /><path d="M 195.0 335 L 210.0 350 L 210.0 335 Z" fill="#F8F8FF" stroke="#696969" stroke-width="1.5" /><path d="M 195.0 335 L 195.0 350 L 210.0 350" fill="none" stroke="#696969" stroke-width="1.5" /><text fill="#696969" font-family="Arial, sans-serif" font-style="italic" text-anchor="middle" x="150.0" y="355">«container»</text><text fill="#000000" font-family="Arial, sans-serif" font-weight="bold" text-anchor="middle" x="150.0" y="375">App Container</text><rect fill="#F8F8FF" height="60" stroke="#696969" stroke-width="1.5" width="120" x="90.0" y="405" /><path d="M 195.0 405 L 210.0 420 L 210.0 405 Z" fill="#F8F8FF" stroke="#696969" stroke-width="1.5" /><path d="M 195.0 405 L 195.0 420 L 210.0 420" fill="none" stroke="#696969" stroke-width="1.5" /><text fill="#696969" font-family="Arial, sans-serif" font-style="italic" text-anchor="middle" x="150.0" y="425">«service»</text><text fill="#000000" font-family="Arial, sans-serif" font-weight="bold" text-anchor="middle" x="150.0" y="445">Cache</text><rect fill="#E8F0FF" height="150" stroke="#2F4F4F" stroke-width="2" width="200" x="300" y="250" /><polygon fill="#E8F0FF" points="300,250 320,230 520,230 500,250" stroke="#2F4F4F" stroke-width="2" /><polygon fill="#E8F0FF" points="500,250 520,230 520,380 500,400" stroke="#2F4F4F" stroke-width="2" /><text fill="#696969" font-family="Arial, sans-serif" font-style="italic" text-anchor="middle" x="400.0" y="275">«device»</text><text fill="#000000" font-family="Arial, sans-serif" font-weight="bold" text-anchor="middle" x="400.0" y="295">Database Server</text><text fill="#000000" font-family="Arial, sans-serif" font-style="italic" text-anchor="middle" x="400.0" y="315">(device)</text><rect fill="#F8F8FF" height="60" stroke="#696969" stroke-width="1.5" width="120" x="340.0" y="335" /><path d="M 445.0 335 L 460.0 350 L 460.0 335 Z" fill="#F8F8FF" stroke="#696969" stroke-width="1.5" /><path d="M 445.0 335 L 445.0 350 L 460.0 350" fill="none" stroke="#696969" stroke-width="1.5" /><text fill="#696969" font-family="Arial, sans-serif" font-style="italic" text-anchor="middle" x="400.0" y="355">«database»</text><text fill="#000000" font-family="Arial, sans-serif" font-weight="bold" text-anchor="middle" x="400.0" y="375">PostgreSQL</text><rect fill="#E8F0FF" height="150" stroke="#2F4F4F" stroke-width="2" width="200" x="550" y="250" /><polygon fill="#E8F0FF" points="550,250 570,230 770,230 750,250" stroke="#2F4F4F" stroke-width="2" /><polygon fill="#E8F0FF" points="750,250 770,230 770,380 750,400" stroke="#2F4F4F" stroke-width="2" /><text fill="#696969" font-family="Arial, sans-serif" font-style="italic" text-anchor="middle" x="650.0" y="275">«device»</text><text fill="#000000" font-family="Arial, sans-serif" font-weight="bold" text-anchor="middle" x="650.0" y="295">Message Queue</text><text fill="#000000" font-family="Arial, sans-serif" font-style="italic" text-anchor="middle" x="650.0" y="315">(device)</text><rect fill="#F8F8FF" height="60" stroke="#696969" stroke-width="1.5" width="120" x="590.0" y="335" /><path d="M 695.0 335 L 710.0 350 L 710.0 335 Z" fill="#F8F8FF" stroke="#696969" stroke-width="1.5" /><path d="M 695.0 335 L 695.0 350 L 710.0 350" fill="none" stroke="#696969" stroke-width="1.5" /><text fill="#696969" font-family="Arial, sans-serif" font-style="italic" text-anchor="middle" x="650.0" y="355">«queue»</text><text fill="#000000" font-family="Arial, sans-serif" font-weight="bold" text-anchor="middle" x="650.0" y="375">RabbitMQ</text><rect fill="#E8F0FF" height="150" stroke="#2F4F4F" stroke-width="2" width="200" x="50" y="450" /><polygon fill="#E8F0FF" points="50,450 70,430 270,430 250,450" stroke="#2F4F4F" stroke-width="2" /><polygon fill="#E8F0FF" points="250,450 270,430 270,580 250,600" stroke="#2F4F4F" stroke-width="2" /><text fill="#696969" font-family="Arial, sans-serif" font-style="italic" text-anchor="middle" x="150.0" y="475">«device»</text><text fill="#000000" font-family="Arial, sans-serif" font-weight="bold" text-anchor="middle" x="150.0" y="495">Monitoring</text><text fill="#000000" font-family="Arial, sans-serif" font-style="italic" text-anchor="middle" x="150.0" y="515">(device)</text><rect fill="#F8F8FF" height="60" stroke="#696969" stroke-width="1.5" width="120" x="90.0" y="535" /><path d="M 195.0 535 L 210.0 550 L 210.0 535 Z" fill="#F8F8FF" stroke="#696969" stroke-width="1.5" /><path d="M 195.0 535 L 195.0 550 L 210.0 550" fill="none" stroke="#696969" stroke-width="1.5" /><text fill="#696969" font-family="Arial, sans-serif" font-style="italic" text-anchor="middle" x="150.0" y="555">«monitoring»</text><text fill="#000000" font-family="Arial, sans-serif" font-weight="bold" text-anchor="middle" x="150.0" y="575">Prometheus</text><rect fill="#F8F8FF" height="60" stroke="#696969" stroke-width="1.5" width="120" x="90.0" y="605" /><path d="M 195.0 605 L 210.0 620 L 210.0 605 Z" fill="#F8F8FF" stroke="#696969" stroke-width="1.5" /><path d="M 195.0 605 L 195.0 620 L 210.0 620" fill="none" stroke="#696969" stroke-width="1.5" /><text fill="#696969" font-family="Arial, sans-serif" font-style="italic" text-anchor="middle" x="150.0" y="625">«monitoring»</text><text fill="#000000" font-family="Arial, sans-serif" font-weight="bold" text-anchor="middle" x="150.0" y="645">Grafana</text></g><g id="artifacts" /><g id="paths"><line marker-end="url(#arrow)" stroke="#000000" stroke-width="2" x1="150.0" x2="400.0" y1="125.0" y2="125.0" /><text fill="#000000" font-family="Arial, sans-serif" font-size="12px" text-anchor="middle" x="275.0" y="140.0">HTTP Traffic</text><text fill="#696969" font-family="Arial, sans-serif" font-size="10px" font-style="italic" text-anchor="middle" x="275.0" y="125.0">«HTTP/HTTPS»</text><line marker-end="url(#arrow)" stroke="#000000" stroke-width="2" x1="150.0" x2="650.0" y1="125.0" y2="125.0" /><text fill="#000000" font-family="Arial, sans-serif" font-size="12px" text-anchor="middle" x="400.0" y="140.0">HTTP Traffic</text><text fill="#696969" font-family="Arial, sans-serif" font-size="10px" font-style="italic" text-anchor="middle" x="400.0" y="125.0">«HTTP/HTTPS»</text><line marker-end="url(#arrow)" stroke="#000000" stroke-width="2" x1="400.0" x2="150.0" y1="125.0" y2="325.0" /><text fill="#000000" font-family="Arial, sans-serif" font-size="12px" text-anchor="middle" x="265.62957428668363" y="213.28696785835456">API Calls</text><text fill="#696969" font-family="Arial, sans-serif" font-size="10px" font-style="italic" text-anchor="middle" x="265.62957428668363" y="198.28696785835456">«HTTP/REST»</text><line marker-end="url(#arrow)" stroke="#000000" stroke-width="2" x1="650.0" x2="150.0" y1="125.0" y2="325.0" /><text fill="#000000" font-family="Arial, sans-serif" font-size="12px" text-anchor="middle" x="394.42913985468846" y="211.07284963672112">API Calls</text><text fill="#696969" font-family="Arial, sans-serif" font-size="10px" font-style="italic" text-anchor="middle" x="394.42913985468846" y="196.07284963672112">«HTTP/REST»</text><line marker-end="url(#arrow)" stroke="#000000" stroke-width="2" x1="150.0" x2="400.0" y1="325.0" y2="325.0" /><text fill="#000000" font-family="Arial, sans-serif" font-size="12px" text-anchor="middle" x="275.0" y="340.0">Database Connection</text><text fill="#696969" font-family="Arial, sans-serif" font-size="10px" font-style="italic" text-anchor="middle" x="275.0" y="325.0">«PostgreSQL»</text><line marker-end="url(#arrow)" stroke="#000000" stroke-width="2" x1="150.0" x2="650.0" y1="325.0" y2="325.0" /><text fill="#000000" font-family="Arial, sans-serif" font-size="12px" text-anchor="middle" x="400.0" y="340.0">Message Queue</text><text fill="#696969" font-family="Arial, sans-serif" font-size="10px" font-style="italic" text-anchor="middle" x="400.0" y="325.0">«AMQP»</text><line marker-end="url(#arrow)" stroke="#000000" stroke-width="2" x1="150.0" x2="150.0" y1="125.0" y2="525.0" /><text fill="#000000" font-family="Arial, sans-serif" font-size="12px" text-anchor="middle" x="135.0" y="325.0">Metrics</text><text fill="#696969" font-family="Arial, sans-serif" font-size="10px" font-style="italic" text-anchor="middle" x="135.0" y="310.0">«HTTP»</text><line marker-end="url(#arrow)" stroke="#000000" stroke-width="2" x1="400.0" x2="150.0" y1="125.0" y2="525.0" /><text fill="#000000" font-family="Arial, sans-serif" font-size="12px" text-anchor="middle" x="262.2800254399237" y="317.0500158999523">Metrics</text><text fill="#696969" font-family="Arial, sans-serif" font-size="10px" font-style="italic" text-anchor="middle" x="262.2800254399237" y="302.0500158999523">«HTTP»</text><line marker-end="url(#arrow)" stroke="#000000" stroke-width="2" x1="650.0" x2="150.0" y1="125.0" y2="525.0" /><text fill="#000000" font-family="Arial, sans-serif" font-size="12px" text-anchor="middle" x="390.62957428668363" y="313.28696785835456">Metrics</text><text fill="#696969" font-family="Arial, sans-serif" font-size="10px" font-style="italic" text-anchor="middle" x="390.62957428668363" y="298.28696785835456">«HTTP»</text><line marker-end="url(#arrow)" stroke="#000000" stroke-width="2" x1="150.0" x2="150.0" y1="325.0" y2="525.0" /><text fill="#000000" font-family="Arial, sans-serif" font-size="12px" text-anchor="middle" x="135.0" y="425.0">Metrics</text><text fill="#696969" font-family="Arial, sans-serif" font-size="10px" font-style="italic" text-anchor="middle" x="135.0" y="410.0">«HTTP»</text><line marker-end="url(#arrow)" stroke="#000000" stroke-width="2" x1="400.0" x2="150.0" y1="325.0" y2="525.0" /><text fill="#000000" font-family="Arial, sans-serif" font-size="12px" text-anchor="middle" x="265.62957428668363" y="413.28696785835456">Metrics</text><text fill="#696969" font-family="Arial, sans-serif" font-size="10px" font-style="italic" text-anchor="middle" x="265.62957428668363" y="398.28696785835456">«HTTP»</text><line marker-end="url(#arrow)" stroke="#000000" stroke-width="2" x1="650.0" x2="150.0" y1="325.0" y2="525.0" /><text fill="#000000" font-family="Arial, sans-serif" font-size="12px" text-anchor="middle" x="394.42913985468846" y="411.0728496367211">Metrics</text><text fill="#696969" font-family="Arial, sans-serif" font-size="10px" font-style="italic" text-anchor="middle" x="394.42913985468846" y="396.0728496367211">«HTTP»</text></g></svg>